<svg width="233" height="125" viewBox="0 0 233 211" fill="none" xmlns="http://www.w3.org/2000/svg">
<path d="M90.8604 4.13417L91.6604 8.13417H84.0604C75.9271 8.13417 58.0604 10.1342 46.5938 12.4008C40.0604 13.6008 39.1271 14.2675 35.1271 20.5342C29.9271 28.8008 26.7271 37.2009 19.5271 62.1342C11.3938 89.8675 7.66044 109.868 7.66044 125.601C7.66044 128.801 6.72711 136.268 5.66044 142.134C3.79378 152.001 2.99378 156.001 0.32711 167.601C-0.47289 171.334 -0.0728903 172.001 4.59378 174.934C9.26044 177.868 10.7271 178.134 25.6604 177.734C36.7271 177.468 42.4604 176.801 44.4604 175.468C47.2604 173.601 47.5271 173.734 48.3271 177.468C49.2604 181.734 53.9271 186.268 60.9938 189.734C96.3271 206.668 115.394 212.001 134.994 210.268C148.194 208.934 156.327 206.401 166.86 200.001C171.794 197.068 178.727 193.601 182.194 192.534C185.527 191.334 189.527 189.601 190.994 188.534C192.46 187.601 195.527 186.801 197.927 186.801C203.527 186.801 212.46 182.668 217.927 177.468C224.194 171.601 233.66 155.201 232.06 153.068C231.26 152.268 229.927 147.601 229.127 142.801C227.527 134.534 225.66 127.201 221.66 112.801C220.594 109.068 217.927 98.6675 215.66 89.4675C213.394 80.2675 210.06 68.5342 208.327 63.3342C206.46 58.1342 204.327 50.5342 203.527 46.6675C202.727 42.6675 200.594 34.5342 198.86 28.6675C192.06 5.86751 185.127 1.86752 154.994 3.33418C145.527 3.73418 135.66 4.53417 133.394 4.93417C129.527 5.60084 128.994 5.46751 128.994 2.93417C128.994 0.175344 126.457 -0.617276 124.839 0.468826C124.111 0.957458 123.568 1.82634 123.527 3.0675C123.26 7.4675 123.794 10.0008 124.994 10.8008C125.527 11.2008 126.46 12.9342 126.994 14.5342C127.527 16.2675 130.327 20.1342 133.26 23.0675C136.194 26.0008 138.194 28.6675 137.66 29.2009C136.727 30.1342 123.794 31.7342 108.327 32.8008C101.26 33.3342 95.3938 32.9342 91.1271 31.7342C83.9271 29.8675 81.9271 27.4675 86.1938 26.1342C94.3867 23.5877 99.27 5.90691 95.5 0.468826C104.124 -0.209976 122.256 0.742188 124.839 0.468826C125.178 0.432884 125.249 0.400584 124.994 0.371964C122.128 0.0503563 92.9314 0.134171 92.0604 0.134171C90.4604 0.134171 90.1938 1.0675 90.8604 4.13417ZM182.727 10.8008C188.994 14.9342 193.26 23.6008 197.127 39.4675C198.727 46.0008 202.194 58.9342 204.994 68.1342C207.794 77.3342 210.86 88.1342 211.794 92.1342C212.594 96.1342 215.127 105.734 217.26 113.201C219.394 120.801 222.594 133.468 224.327 141.201L227.394 155.468L222.594 163.868C218.86 170.268 215.794 173.601 209.794 177.601C199.66 184.401 196.327 184.401 195.127 177.734C192.86 165.334 191.394 154.401 190.327 141.468C188.727 123.334 186.594 106.934 185.527 103.068C184.727 100.268 184.994 100.134 188.46 100.934C190.594 101.468 192.727 102.401 193.127 103.068C194.327 104.934 195.794 100.534 194.86 98.1342C193.927 95.8675 191.66 95.4675 191.66 97.4675C191.66 98.1342 190.194 98.8009 188.327 98.8009C185.794 98.8009 184.86 97.8675 184.194 95.0675C183.794 93.0675 182.86 89.3342 182.194 86.8009C177.527 67.8675 175.794 50.4008 178.327 48.8008C180.06 47.7342 180.06 44.1342 178.194 44.1342C177.394 44.1342 175.26 45.3342 173.394 46.8008C171.527 48.2675 168.86 49.4675 167.527 49.4675C166.06 49.4675 164.994 50.4008 164.994 51.4675C164.994 52.8008 166.327 53.4675 168.994 53.4675C172.727 53.4675 172.994 53.8675 172.994 58.4008C172.994 63.4675 174.727 72.9342 179.66 96.1342C182.594 109.734 184.327 122.134 186.327 144.134C186.994 151.868 187.927 160.934 188.46 164.401C189.26 169.868 188.994 170.801 187.127 170.801C185.927 170.801 182.594 172.001 179.927 173.334C176.86 174.801 173.527 175.601 171.26 175.201C168.594 174.668 167.66 175.068 167.66 176.668C167.66 177.868 168.06 178.668 168.727 178.534C169.26 178.534 170.727 178.801 171.927 179.334C173.394 180.001 176.327 179.068 180.06 176.934C187.394 172.534 189.794 172.534 190.86 176.934C192.06 181.334 191.527 181.734 182.327 185.601C178.327 187.201 173.794 189.601 172.327 190.801C166.727 195.468 155.527 201.468 148.194 203.601C136.46 206.934 112.994 205.734 98.9938 200.934C83.1271 195.468 58.1938 183.734 55.1271 180.268C49.6604 174.134 48.4604 128.268 52.9938 93.4675C54.4604 82.1342 55.6604 69.0675 55.6604 64.5342C55.6604 60.0008 56.3271 55.8675 56.9938 55.4675C57.7938 54.9342 60.4604 55.8675 62.9938 57.4675C65.6604 59.0675 68.5938 60.0008 69.7938 59.6008C72.3271 58.6675 70.9938 56.1342 67.7938 56.1342C66.5938 56.1342 64.0604 54.8009 62.3271 53.2009C60.5938 51.4675 58.4604 50.1342 57.6604 50.1342C56.9938 50.1342 54.8604 49.6008 53.1271 48.9342C49.1271 47.4675 45.7938 50.2675 49.3938 52.2675C52.3271 54.0009 52.3271 58.1342 49.5271 82.4008C47.7938 96.6675 46.8604 101.468 45.3938 101.468C44.4604 101.468 42.9938 99.8675 42.1938 98.0009C40.7271 93.8675 40.0604 94.2675 38.3271 100.001C37.3938 103.468 37.5271 104.134 38.7271 102.934C39.6604 102.268 41.7938 102.001 43.5271 102.401L46.5938 103.201L45.7938 136.668C45.3938 155.068 45.1271 170.268 44.9938 170.268C44.5938 171.734 35.5271 173.334 27.6604 173.601C12.4604 173.868 10.8604 173.601 7.79378 171.068L4.99378 168.801L8.19378 153.468C9.92711 145.068 12.0604 130.268 12.9938 120.801C14.8604 98.4009 16.1938 90.5342 21.2604 73.4675C33.7938 30.2675 37.6604 21.2008 44.7271 18.6675C46.7271 18.0008 49.5271 16.8008 50.9938 16.1342C52.4604 15.4675 58.4604 14.5342 64.3271 14.1342L74.9938 13.2009L74.5938 19.8675C73.9271 28.5342 77.5271 32.8008 87.6604 35.4675C101.394 39.0675 136.327 36.4009 143.26 31.2009C147.794 28.0009 148.86 19.7342 145.794 13.6008C144.594 11.4675 143.66 9.33417 143.66 8.93417C143.66 7.46751 149.127 7.06752 162.994 7.20085C176.194 7.46752 178.194 7.73418 182.727 10.8008ZM140.727 14.6675C144.194 20.6675 144.46 22.8008 141.66 22.8008C138.994 22.8008 134.46 18.9342 132.194 14.5342C129.66 9.73418 129.794 9.46751 134.06 9.46751C136.994 9.46751 138.46 10.5342 140.727 14.6675ZM91.6604 13.4675C91.6604 16.9342 88.1938 21.4675 84.5938 22.8008C79.3938 24.5342 79.6604 24.6675 79.6604 20.6675C79.6604 14.8008 81.9271 12.1342 86.9938 12.1342C89.5271 12.1342 91.6604 12.6675 91.6604 13.4675Z" fill="black"/>
<path id="hoodcolor" d="M182.727 10.8008C188.994 14.9342 193.26 23.6008 197.127 39.4675C198.727 46.0008 202.194 58.9342 204.994 68.1342C207.794 77.3342 210.86 88.1342 211.794 92.1342C212.594 96.1342 215.127 105.734 217.26 113.201C219.394 120.801 222.594 133.468 224.327 141.201L227.394 155.468L222.594 163.868C218.86 170.268 215.794 173.601 209.794 177.601C199.66 184.401 196.327 184.401 195.127 177.734C192.86 165.334 191.394 154.401 190.327 141.468C188.727 123.334 186.594 106.934 185.527 103.068C184.727 100.268 184.994 100.134 188.46 100.934C190.594 101.468 192.727 102.401 193.127 103.068C194.327 104.934 195.794 100.534 194.86 98.1342C193.927 95.8675 191.66 95.4675 191.66 97.4675C191.66 98.1342 190.194 98.8009 188.327 98.8009C185.794 98.8009 184.86 97.8675 184.194 95.0675C183.794 93.0675 182.86 89.3342 182.194 86.8009C177.527 67.8675 175.794 50.4008 178.327 48.8008C180.06 47.7342 180.06 44.1342 178.194 44.1342C177.394 44.1342 175.26 45.3342 173.394 46.8008C171.527 48.2675 168.86 49.4675 167.527 49.4675C166.06 49.4675 164.994 50.4008 164.994 51.4675C164.994 52.8008 166.327 53.4675 168.994 53.4675C172.727 53.4675 172.994 53.8675 172.994 58.4008C172.994 63.4675 174.727 72.9342 179.66 96.1342C182.594 109.734 184.327 122.134 186.327 144.134C186.994 151.868 187.927 160.934 188.46 164.401C189.26 169.868 188.994 170.801 187.127 170.801C185.927 170.801 182.594 172.001 179.927 173.334C176.86 174.801 173.527 175.601 171.26 175.201C168.594 174.668 167.66 175.068 167.66 176.668C167.66 177.868 168.06 178.668 168.727 178.534C169.26 178.534 170.727 178.801 171.927 179.334C173.394 180.001 176.327 179.068 180.06 176.934C187.394 172.534 189.794 172.534 190.86 176.934C192.06 181.334 191.527 181.734 182.327 185.601C178.327 187.201 173.794 189.601 172.327 190.801C166.727 195.468 155.527 201.468 148.194 203.601C136.46 206.934 112.994 205.734 98.9938 200.934C83.1271 195.468 58.1938 183.734 55.1271 180.268C49.6604 174.134 48.4604 128.268 52.9938 93.4675C54.4604 82.1342 55.6604 69.0675 55.6604 64.5342C55.6604 60.0008 56.3271 55.8675 56.9938 55.4675C57.7938 54.9342 60.4604 55.8675 62.9938 57.4675C65.6604 59.0675 68.5938 60.0008 69.7938 59.6008C72.3271 58.6675 70.9938 56.1342 67.7938 56.1342C66.5938 56.1342 64.0604 54.8009 62.3271 53.2009C60.5938 51.4675 58.4604 50.1342 57.6604 50.1342C56.9938 50.1342 54.8604 49.6008 53.1271 48.9342C49.1271 47.4675 45.7938 50.2675 49.3938 52.2675C52.3271 54.0009 52.3271 58.1342 49.5271 82.4008C47.7938 96.6675 46.8604 101.468 45.3938 101.468C44.4604 101.468 42.9938 99.8675 42.1938 98.0009C40.7271 93.8675 40.0604 94.2675 38.3271 100.001C37.3938 103.468 37.5271 104.134 38.7271 102.934C39.6604 102.268 41.7938 102.001 43.5271 102.401L46.5938 103.201L45.7938 136.668C45.3938 155.068 45.1271 170.268 44.9938 170.268C44.5938 171.734 35.5271 173.334 27.6604 173.601C12.4604 173.868 10.8604 173.601 7.79378 171.068L4.99378 168.801L8.19378 153.468C9.92711 145.068 12.0604 130.268 12.9938 120.801C14.8604 98.4009 16.1938 90.5342 21.2604 73.4675C33.7938 30.2675 37.6604 21.2008 44.7271 18.6675C46.7271 18.0008 49.5271 16.8008 50.9938 16.1342C52.4604 15.4675 58.4604 14.5342 64.3271 14.1342L74.9938 13.2009L74.5938 19.8675C73.9271 28.5342 77.5271 32.8008 87.6604 35.4675C101.394 39.0675 136.327 36.4009 143.26 31.2009C147.794 28.0009 148.86 19.7342 145.794 13.6008C144.594 11.4675 143.66 9.33417 143.66 8.93417C143.66 7.46751 149.127 7.06752 162.994 7.20085C176.194 7.46752 178.194 7.73418 182.727 10.8008Z" fill="current"/>
<path d="M91.6604 13.4675C91.6604 16.9342 88.1938 21.4675 84.5938 22.8008C79.3938 24.5342 79.6604 24.6675 79.6604 20.6675C79.6604 14.8008 81.9271 12.1342 86.9938 12.1342C89.5271 12.1342 91.6604 12.6675 91.6604 13.4675Z" fill="current"/>
<path d="M140.727 14.6675C144.194 20.6675 144.46 22.8008 141.66 22.8008C138.994 22.8008 134.46 18.9342 132.194 14.5342C129.66 9.73418 129.794 9.46751 134.06 9.46751C136.994 9.46751 138.46 10.5342 140.727 14.6675Z" fill="current"/>
<path d="M124.839 0.468826C124.111 0.957458 123.568 1.82634 123.527 3.0675C123.26 7.4675 123.794 10.0008 124.994 10.8008C125.527 11.2008 126.46 12.9342 126.994 14.5342C127.527 16.2675 130.327 20.1342 133.26 23.0675C136.194 26.0008 138.194 28.6675 137.66 29.2009C136.727 30.1342 123.794 31.7342 108.327 32.8008C101.26 33.3342 95.3938 32.9342 91.1271 31.7342C83.9271 29.8675 81.9271 27.4675 86.1938 26.1342C94.3867 23.5877 99.27 5.90691 95.5 0.468826C104.124 -0.209976 122.256 0.742188 124.839 0.468826Z" fill="currentcolor"/>
<path d="M158.594 147.201C154.594 153.868 154.327 155.068 154.46 166.134C154.594 179.868 155.66 184.801 158.327 184.801C159.527 184.801 160.06 183.868 159.794 182.801C159.527 181.734 158.994 175.334 158.727 168.801C158.194 156.934 158.194 156.668 162.86 148.934C165.527 144.668 167.66 140.934 167.66 140.668C167.66 140.401 166.594 140.134 165.26 140.134C163.794 140.134 161.26 142.934 158.594 147.201Z" fill="black"/>
<path d="M69.9272 154.534C70.5938 164.668 70.3272 167.201 67.7938 172.668C66.3272 176.268 65.3938 179.601 65.7938 180.268C67.3938 182.801 69.2605 181.201 72.3272 174.401C76.3272 166.001 76.9938 150.668 73.5272 145.734C69.9272 140.534 69.1272 142.534 69.9272 154.534Z" fill="black"/>
</svg>
