<svg width="254" height="125" viewBox="0 0 254 211" fill="none" xmlns="http://www.w3.org/2000/svg">
<path d="M132 9.06667C132 16.8 132.4 18.6667 135.067 20.9333C138.533 24.2667 145.867 28.8 151.067 30.8C155.2 32.4 155.2 32.5333 153.2 36.1333C150.8 40.6667 147.467 44 145.333 44C144.267 44 141.867 45.2 140 46.6667C132.933 52.2667 110.667 48.5333 100 40.1333C97.4667 38.1333 94 35.7333 92.2667 34.8C89.2 33.2 89.3333 33.0667 95.7333 27.8667C99.4667 25.0667 102.8 21.7333 103.2 20.5333C104.267 17.8667 104.267 6.13333 103.2 3.46666C102.133 0.799993 98.8 0.666662 97.8667 3.33333C97.2 4.93333 94.1333 5.33333 81.3333 5.33333C63.2 5.33333 61.0667 6.4 63.6 13.7333C67.0667 23.8667 67.0667 24 63.4667 24C60.1333 24 44.1333 35.4667 44 38C44 38.6667 40.4 45.3333 36 52.5333C31.6 59.8667 28 66.4 28 66.9333C28 67.6 24.8 73.6 20.9333 80.4C14.1333 92.4 11.4667 97.6 9.2 103.6C8.53333 105.333 7.46667 108 6.8 109.6C0.133333 126.4 0 127.2 0 139.6C0 154 1.86667 159.6 8.53333 164.667C10.8 166.4 14.8 168.133 17.4667 168.667C22.2667 169.6 22.2667 169.6 21.7333 175.2C20.6667 184.533 23.7333 185.333 45.3333 181.733C50.6667 180.8 51.3333 180.267 52 176.667C52.8 172.267 56.8 170.4 58.1333 173.867C58.6667 175.067 58.1333 178 57.2 180.267C55.6 184.267 55.7333 184.533 60.1333 188.267C65.2 192.667 76 197.867 82.8 199.333C86.8 200.133 95.4667 203.333 103.333 206.8C109.467 209.467 119.733 210.667 137.6 210.8C156 210.933 157.067 210.667 167.733 206.667C173.867 204.267 183.6 199.6 189.467 196.4L200 190.4L212.933 190.533C220 190.667 226.267 191.067 226.933 191.467C227.467 191.867 228.4 191.2 228.8 190.133C229.2 189.067 230.667 187.733 232.133 187.333C234.933 186.4 235.733 179.467 233.333 178C232.667 177.6 232 174.533 232 171.467C232 165.733 232.133 165.6 237.2 164.8C240.8 164.267 244 162.4 248 158.4L253.6 152.667L252.933 143.067C252.667 137.733 251.733 132.667 251.067 131.733C250.267 130.8 249.2 127.333 248.667 124C247.333 115.2 240.133 94.6667 237.2 90.8C231.867 83.8667 226.667 75.3333 226.667 73.2C226.667 70.4 221.2 62.4 215.2 56.1333C212.533 53.4667 209.2 48.8 207.733 45.6C206.267 42.4 201.2 35.7333 196.4 30.5333L187.733 21.3333H179.733C172.533 21.3333 172 21.2 173.867 19.2C175.067 18.1333 176 15.4667 176 13.4667C176 7.73333 173.067 6.79999 147.333 4.53333C141.467 3.99999 137.6 2.93334 136.933 1.86667C136.4 0.800002 134.933 0 134 0C133.87 0 133.748 0.0132054 133.633 0.041275C133.046 0.185196 132.655 0.719696 132.404 1.86667C132.101 3.24844 132 5.51911 132 9.06667ZM152 10.6667C152 12.2667 150.933 12.2667 147.333 10.6667C144.933 9.60001 145.067 9.46666 148.4 9.46666C150.4 9.33333 152 9.86667 152 10.6667ZM77.6 12.2667C75.3333 14.5333 75.6 17.0667 78.6667 21.3333L81.3333 25.0667L76 22.5333C72.5333 20.8 70.6667 19.0667 70.6667 17.4667C70.6667 16 70.2667 14 69.8667 12.8C69.2 11.0667 70 10.6667 74.1333 10.6667C78.1333 10.6667 78.8 11.0667 77.6 12.2667ZM169.067 14.2667C169.333 15.3333 168.4 16 166.8 16C165.333 16 163.733 16.6667 163.333 17.4667C162.4 18.8 158.8 15.2 158.667 12.9333C158.667 11.2 168.4 12.5333 169.067 14.2667ZM169.333 21.8667C169.333 22.1333 168.4 22.8 167.2 23.2C166.133 23.6 165.6 23.4667 166 22.6667C166.8 21.3333 169.333 20.8 169.333 21.8667ZM192.533 34.8C196.667 39.2 201.467 45.7333 203.2 49.0667C205.067 52.5333 208.933 58 211.867 61.3333C214.933 64.6667 218.133 69.0667 219.2 71.3333C220.133 73.4667 222 77.4667 223.067 80C224.267 82.5333 227.867 88.5333 231.2 93.2C234.533 98 237.333 102.8 237.333 103.867C237.333 105.067 238.4 108.933 239.867 112.667C241.2 116.267 242.8 122.267 243.333 126C243.867 129.6 244.8 133.333 245.467 134.133C246.133 135.067 247.067 138.667 247.6 142.267C248.267 148.533 248.133 149.2 243.067 154.4C238.8 158.933 236.8 160 233.067 160C230.4 160 228 160.8 227.6 161.6C227.333 162.533 227.067 167.733 227.2 173.067C227.333 181.067 227.067 182.4 225.733 180.4C224.8 179.2 224 177.333 224 176.4C224 175.467 222.667 174.667 221.2 174.667C218.533 174.667 218.4 175.2 219.2 180.133C220.267 186.4 218.667 186.133 215.333 179.333C213.867 176.133 212.4 174.667 210.933 174.933C208.667 175.467 208.4 176.933 210.133 182.267C210.667 184.267 210.4 185.333 209.467 185.333C208.667 185.333 207.6 184.267 207.2 182.933C206.8 181.733 205.2 178.267 203.6 175.467C202.133 172.533 200.4 168 199.867 165.467C199.333 162.8 197.733 156.133 196.267 150.667C194.8 145.2 192.8 136.4 192 131.333C191.067 126.133 189.733 120.933 189.067 119.733C187.067 115.733 185.333 105.2 184.133 88.8C182.933 73.3333 181.467 68.6667 178.667 71.4667C176.8 73.3333 179.333 106.4 182 116C184 123.333 186.4 133.6 190.267 151.333C191.333 156.4 192.933 161.733 193.733 163.333C194.533 164.8 195.067 167.067 194.8 168.4C194.667 169.733 195.2 171.733 196.133 172.8C196.933 173.867 197.333 175.067 196.8 175.6C196.4 176 196 175.733 196 174.933C196 174 194.8 173.333 193.333 173.333C190.933 173.333 190.667 174.267 190.667 181.2C190.667 192 187.6 193.2 185.467 183.2C184.133 177.467 183.333 176 181.6 176.267C179.2 176.8 178.933 179.6 180.667 188.933C181.867 196 180 196.4 176.533 190C175.2 187.467 173.2 185.067 172.133 184.667C168.8 183.333 168 187.067 170.8 191.467C173.867 196.533 174 198.133 171.2 199.2C168.267 200.4 168 200 166.933 192.4C166.133 187.067 165.467 185.867 162.8 185.6C160.133 185.2 159.867 185.467 160.533 188.933C163.067 202 160.533 209.467 157.333 198C156.133 193.467 155.067 192 153.067 192C150.667 192 150.533 192.667 151.333 198.667C152.133 204.267 151.867 205.333 150.133 205.333C148.667 205.333 147.733 203.6 147.2 200.133C146.4 195.067 143.867 192.533 141.2 194C138.933 195.467 136 184.933 136 174.8C136 169.2 135.333 160.933 134.667 156.267C134 151.6 133.067 139.467 132.533 129.2C131.733 113.2 131.867 110.667 133.6 110.667C136.933 110.667 142.667 105.333 142.667 102.267C142.667 100.8 140.8 97.4667 138.4 95.0667L134.267 90.8L135.867 81.0667C137.867 69.0667 142.533 59.0667 150.267 50.6667C152.667 48.1333 156.267 42.8 158.4 38.8C162.933 30.5333 169.067 26.9333 178.8 26.8C184.8 26.6667 185.333 27.0667 192.533 34.8ZM75.3333 31.4667C77.6 32 81.4667 34.1333 84.1333 36.1333C86.8 38.2667 89.6 40 90.1333 40C92.9333 40 107.067 54.1333 109.333 59.2C112.533 66.1333 115.467 75.2 116.667 82C117.2 84.9333 118 87.8667 118.667 88.6667C120.267 90.6667 121.333 100.133 122.667 122.667C123.333 134 124.4 147.467 125.2 152.667C126.933 164.667 127.067 190.267 125.333 191.333C124.667 191.733 124 194.133 124 196.667C124 202.133 122.8 205.333 120.8 205.333C119.867 205.333 119.333 202.533 119.333 197.733C119.333 191.733 118.933 190 117.333 190C115.867 190 115.2 191.867 114.933 197.067C114.533 204.4 114.4 204.4 109.6 203.2C107.333 202.533 106.933 201.867 108 200.667C110.267 198 109.067 187.333 106.667 187.333C105.2 187.333 104.533 189.067 104.267 193.733C103.867 198.933 103.467 200.133 101.6 199.733C99.8667 199.467 99.2 197.467 98.6667 192C98.1333 186.667 97.4667 184.667 96 184.667C94.6667 184.667 93.8667 186.4 93.6 190.267C93.2 196.533 93.0667 196.667 89.2 194.667C87.3333 193.6 86.6667 191.867 86.6667 187.867C86.6667 183.467 86.2667 182.533 84.4 182.933C82.8 183.2 81.7333 185.067 81.2 188.667C80.2667 195.2 78.9333 192.533 78.4 183.333C78.1333 178.4 77.4667 176.667 76 176.667C74.5333 176.667 73.8667 178.533 73.3333 182.933C72.4 192.4 70 188.933 70 178C70 170.267 69.6 168.667 67.7333 168.267C65.6 167.867 65.3333 168.933 65.0667 176.267L64.8 184.667L64.4 176.667C64.1333 172.267 63.3333 168.133 62.8 167.6C62.1333 166.933 62.2667 163.733 62.9333 160.267C68.4 130.667 70.9333 74 66.6667 74C65.0667 74 64.5333 77.7333 63.8667 96.6667C63.3333 109.067 62.6667 121.467 62.1333 124C61.7333 126.533 60.4 136.133 59.3333 145.2C57.0667 163.067 55.8667 166.667 52 166.667C50.6667 166.667 49.2 167.2 48.8 167.867C48.4 168.4 46.5333 168.667 44.8 168.4C42.2667 167.867 41.4667 168.4 40.9333 170.8C40.4 173.733 40.4 173.733 40.1333 170.4C40 166.133 37.4667 164.267 35.4667 166.8C34.6667 167.867 32.9333 168.533 31.7333 168.267C29.7333 167.867 29.3333 168.8 29.3333 172.533C29.3333 175.2 28.8 177.333 28.1333 177.333C27.4667 177.333 26.9333 174.533 27.0667 171.067L27.3333 164.8L21.3333 163.467C9.33333 160.533 5.33333 154.667 5.33333 139.6C5.33333 129.733 5.86667 127.867 13.6 108.667C18 97.7333 36 62.8 39.3333 58.6667C40.1333 57.6 43.0667 52.8 45.7333 48C50.1333 40 54.6667 34.6667 57.0667 34.6667C57.6 34.6667 59.2 33.4667 60.5333 31.8667C62.9333 29.0667 64.9333 28.9333 75.3333 31.4667ZM138.267 55.0667C139.333 55.2 138.533 57.6 136.133 61.3333C133.733 65.2 131.733 71.0667 130.667 77.2C129.2 85.8667 128.8 86.8 126.267 86.4C124 86.1333 123.067 84.2667 121.2 76.6667C120 71.4667 117.867 64.2667 116.4 60.5333L113.733 53.8667L125.2 54.2667C131.467 54.5333 137.333 54.9333 138.267 55.0667ZM198.933 184.267C197.733 185.467 197.333 185.2 197.333 182.667C197.333 180.133 197.733 179.867 198.933 181.067C200.133 182.267 200.133 183.067 198.933 184.267ZM142.533 204.267C142.667 204.933 141.733 205.333 140.533 205.333C139.067 205.333 138.667 204.667 139.2 203.2C139.6 202 140 200.4 140.133 199.6C140.133 198 142.4 202.267 142.533 204.267Z" fill="black"/>
<path d="M75.3333 31.4667C77.6 32 81.4667 34.1333 84.1333 36.1333C86.8 38.2667 89.6 40 90.1333 40C92.9333 40 107.067 54.1333 109.333 59.2C112.533 66.1333 115.467 75.2 116.667 82C117.2 84.9333 118 87.8667 118.667 88.6667C120.267 90.6667 121.333 100.133 122.667 122.667C123.333 134 124.4 147.467 125.2 152.667C126.933 164.667 127.067 190.267 125.333 191.333C124.667 191.733 124 194.133 124 196.667C124 202.133 122.8 205.333 120.8 205.333C119.867 205.333 119.333 202.533 119.333 197.733C119.333 191.733 118.933 190 117.333 190C115.867 190 115.2 191.867 114.933 197.067C114.533 204.4 114.4 204.4 109.6 203.2C107.333 202.533 106.933 201.867 108 200.667C110.267 198 109.067 187.333 106.667 187.333C105.2 187.333 104.533 189.067 104.267 193.733C103.867 198.933 103.467 200.133 101.6 199.733C99.8667 199.467 99.2 197.467 98.6667 192C98.1333 186.667 97.4667 184.667 96 184.667C94.6667 184.667 93.8667 186.4 93.6 190.267C93.2 196.533 93.0667 196.667 89.2 194.667C87.3333 193.6 86.6667 191.867 86.6667 187.867C86.6667 183.467 86.2667 182.533 84.4 182.933C82.8 183.2 81.7333 185.067 81.2 188.667C80.2667 195.2 78.9333 192.533 78.4 183.333C78.1333 178.4 77.4667 176.667 76 176.667C74.5333 176.667 73.8667 178.533 73.3333 182.933C72.4 192.4 70 188.933 70 178C70 170.267 69.6 168.667 67.7333 168.267C65.6 167.867 65.3333 168.933 65.0667 176.267L64.8 184.667L64.4 176.667C64.1333 172.267 63.3333 168.133 62.8 167.6C62.1333 166.933 62.2667 163.733 62.9333 160.267C68.4 130.667 70.9333 74 66.6667 74C65.0667 74 64.5333 77.7333 63.8667 96.6667C63.3333 109.067 62.6667 121.467 62.1333 124C61.7333 126.533 60.4 136.133 59.3333 145.2C57.0667 163.067 55.8667 166.667 52 166.667C50.6667 166.667 49.2 167.2 48.8 167.867C48.4 168.4 46.5333 168.667 44.8 168.4C42.2667 167.867 41.4667 168.4 40.9333 170.8C40.4 173.733 40.4 173.733 40.1333 170.4C40 166.133 37.4667 164.267 35.4667 166.8C34.6667 167.867 32.9333 168.533 31.7333 168.267C29.7333 167.867 29.3333 168.8 29.3333 172.533C29.3333 175.2 28.8 177.333 28.1333 177.333C27.4667 177.333 26.9333 174.533 27.0667 171.067L27.3333 164.8L21.3333 163.467C9.33333 160.533 5.33333 154.667 5.33333 139.6C5.33333 129.733 5.86667 127.867 13.6 108.667C18 97.7333 36 62.8 39.3333 58.6667C40.1333 57.6 43.0667 52.8 45.7333 48C50.1333 40 54.6667 34.6667 57.0667 34.6667C57.6 34.6667 59.2 33.4667 60.5333 31.8667C62.9333 29.0667 64.9333 28.9333 75.3333 31.4667Z" fill="current"/>
<path d="M192.533 34.8C196.667 39.2 201.467 45.7333 203.2 49.0667C205.067 52.5333 208.933 58 211.867 61.3333C214.933 64.6667 218.133 69.0667 219.2 71.3333C220.133 73.4667 222 77.4667 223.067 80C224.267 82.5333 227.867 88.5333 231.2 93.2C234.533 98 237.333 102.8 237.333 103.867C237.333 105.067 238.4 108.933 239.867 112.667C241.2 116.267 242.8 122.267 243.333 126C243.867 129.6 244.8 133.333 245.467 134.133C246.133 135.067 247.067 138.667 247.6 142.267C248.267 148.533 248.133 149.2 243.067 154.4C238.8 158.933 236.8 160 233.067 160C230.4 160 228 160.8 227.6 161.6C227.333 162.533 227.067 167.733 227.2 173.067C227.333 181.067 227.067 182.4 225.733 180.4C224.8 179.2 224 177.333 224 176.4C224 175.467 222.667 174.667 221.2 174.667C218.533 174.667 218.4 175.2 219.2 180.133C220.267 186.4 218.667 186.133 215.333 179.333C213.867 176.133 212.4 174.667 210.933 174.933C208.667 175.467 208.4 176.933 210.133 182.267C210.667 184.267 210.4 185.333 209.467 185.333C208.667 185.333 207.6 184.267 207.2 182.933C206.8 181.733 205.2 178.267 203.6 175.467C202.133 172.533 200.4 168 199.867 165.467C199.333 162.8 197.733 156.133 196.267 150.667C194.8 145.2 192.8 136.4 192 131.333C191.067 126.133 189.733 120.933 189.067 119.733C187.067 115.733 185.333 105.2 184.133 88.8C182.933 73.3333 181.467 68.6667 178.667 71.4667C176.8 73.3333 179.333 106.4 182 116C184 123.333 186.4 133.6 190.267 151.333C191.333 156.4 192.933 161.733 193.733 163.333C194.533 164.8 195.067 167.067 194.8 168.4C194.667 169.733 195.2 171.733 196.133 172.8C196.933 173.867 197.333 175.067 196.8 175.6C196.4 176 196 175.733 196 174.933C196 174 194.8 173.333 193.333 173.333C190.933 173.333 190.667 174.267 190.667 181.2C190.667 192 187.6 193.2 185.467 183.2C184.133 177.467 183.333 176 181.6 176.267C179.2 176.8 178.933 179.6 180.667 188.933C181.867 196 180 196.4 176.533 190C175.2 187.467 173.2 185.067 172.133 184.667C168.8 183.333 168 187.067 170.8 191.467C173.867 196.533 174 198.133 171.2 199.2C168.267 200.4 168 200 166.933 192.4C166.133 187.067 165.467 185.867 162.8 185.6C160.133 185.2 159.867 185.467 160.533 188.933C163.067 202 160.533 209.467 157.333 198C156.133 193.467 155.067 192 153.067 192C150.667 192 150.533 192.667 151.333 198.667C152.133 204.267 151.867 205.333 150.133 205.333C148.667 205.333 147.733 203.6 147.2 200.133C146.4 195.067 143.867 192.533 141.2 194C138.933 195.467 136 184.933 136 174.8C136 169.2 135.333 160.933 134.667 156.267C134 151.6 133.067 139.467 132.533 129.2C131.733 113.2 131.867 110.667 133.6 110.667C136.933 110.667 142.667 105.333 142.667 102.267C142.667 100.8 140.8 97.4667 138.4 95.0667L134.267 90.8L135.867 81.0667C137.867 69.0667 142.533 59.0667 150.267 50.6667C152.667 48.1333 156.267 42.8 158.4 38.8C162.933 30.5333 169.067 26.9333 178.8 26.8C184.8 26.6667 185.333 27.0667 192.533 34.8Z" fill="current"/>
<path d="M77.6 12.2667C75.3333 14.5333 75.6 17.0667 78.6667 21.3333L81.3333 25.0667L76 22.5333C72.5333 20.8 70.6667 19.0667 70.6667 17.4667C70.6667 16 70.2667 14 69.8667 12.8C69.2 11.0667 70 10.6667 74.1333 10.6667C78.1333 10.6667 78.8 11.0667 77.6 12.2667Z" fill="current"/>
<path d="M169.067 14.2667C169.333 15.3333 168.4 16 166.8 16C165.333 16 163.733 16.6667 163.333 17.4667C162.4 18.8 158.8 15.2 158.667 12.9333C158.667 11.2 168.4 12.5333 169.067 14.2667Z" fill="current"/>
<path d="M152 10.6667C152 12.2667 150.933 12.2667 147.333 10.6667C144.933 9.60001 145.067 9.46666 148.4 9.46666C150.4 9.33333 152 9.86667 152 10.6667Z" fill="current"/>
<path d="M138.267 55.0667C139.333 55.2 138.533 57.6 136.133 61.3333C133.733 65.2 131.733 71.0667 130.667 77.2C129.2 85.8667 128.8 86.8 126.267 86.4C124 86.1333 123.067 84.2667 121.2 76.6667C120 71.4667 117.867 64.2667 116.4 60.5333L113.733 53.8667L125.2 54.2667C131.467 54.5333 137.333 54.9333 138.267 55.0667Z" fill="white"/>
<path d="M142.533 204.267C142.667 204.933 141.733 205.333 140.533 205.333C139.067 205.333 138.667 204.667 139.2 203.2C139.6 202 140 200.4 140.133 199.6C140.133 198 142.4 202.267 142.533 204.267Z" fill="current"/>
<path d="M198.933 184.267C197.733 185.467 197.333 185.2 197.333 182.667C197.333 180.133 197.733 179.867 198.933 181.067C200.133 182.267 200.133 183.067 198.933 184.267Z" fill="current"/>
<path d="M103.2 3.46666L133.633 0.041275C133.046 0.185196 132.655 0.719696 132.404 1.86667L103.2 3.46666Z" fill="black"/>
<path d="M132 9.06667C132 16.8 132.4 18.6667 135.067 20.9333C138.533 24.2667 145.867 28.8 151.067 30.8C155.2 32.4 155.2 32.5333 153.2 36.1333C150.8 40.6667 147.467 44 145.333 44C144.267 44 141.867 45.2 140 46.6667C132.933 52.2667 110.667 48.5333 100 40.1333C97.4667 38.1333 94 35.7333 92.2667 34.8C89.2 33.2 89.3333 33.0667 95.7333 27.8667C99.4667 25.0667 102.8 21.7333 103.2 20.5333C104.267 17.8667 104.267 6.13333 103.2 3.46666L132.404 1.86667C132.101 3.24844 132 5.51911 132 9.06667Z" fill="currentcolor"/>
</svg>
