<svg width="194" height="125" viewBox="0 0 194 208" fill="none" xmlns="http://www.w3.org/2000/svg">
<path d="M73.2667 1.46666C72.7334 1.99999 72.3334 5.86666 72.3334 10.1333C72.3334 17.3333 71.9334 18.2667 67.4 22.8C63.5334 26.4 62.2 27.0667 61.9334 25.4667C61.6667 24.2667 60.0667 22.9333 58.3334 22.5333C53.2667 21.3333 36.8667 24.5333 34.3334 27.3333C31.9334 29.8667 27.4 41.6 21.4 60C19.2667 66.5333 16.3334 75.0667 14.8667 78.6667C13.5334 82.4 12.3334 86.5333 12.3334 88C12.3334 89.4667 11.4 93.0667 10.3334 96C9.2667 98.9333 8.4667 103.867 8.33336 107.067C8.33336 110.133 7.80003 113.733 7.13336 115.067C0.60003 128 -1.79997 145.467 1.80003 154.933C4.60003 162.533 8.0667 164.667 17.2667 164.667H25.6667L25.8 172.267C25.8 179.067 26.3334 180.4 29.4 182.8C31.4 184.267 34.6 186 36.6 186.533C38.6 186.933 43.1334 189.067 46.6 191.067C54.7334 195.867 72.0667 202.533 82.3334 204.8C86.7334 205.733 100.6 206.8 113 207.067L135.8 207.467L143.667 203.2C148.067 200.933 152.6 198.267 153.667 197.333C154.733 196.267 157.267 195.067 159.4 194.667C161.4 194.133 163 193.2 163 192.667C163 192 165.4 191.2 168.2 190.667C171.133 190.267 174.467 189.067 175.8 188.133C177.933 186.533 177.933 186 175.933 180.8C174.6 177.733 173.667 173.6 173.667 171.467C173.667 169.333 172.733 166.933 171.667 166C170.6 165.067 169.667 163.333 169.667 162C169.667 160.133 171.133 159.6 177.667 159.067C183 158.667 187 157.6 189.4 155.733C192.733 153.2 193 152.4 193.4 141.333C193.667 133.467 193.133 127.6 191.667 123.467C188.733 114.4 185.667 102.267 185.667 99.3333C185.667 96 180.733 80.2667 177.533 73.3333C176.2 70.4 174.6 65.8667 173.8 63.3333C169.933 49.6 163 36.4 154.2 26.2667L149.267 20.4L137.133 20.6667C119.4 21.0667 119.533 21.0667 114.333 16.5333C110.333 12.9333 109.667 11.6 109.667 6.53333C109.667 1.59999 109.267 0.666656 107 0.666656C105.992 0.666656 105.36 0.831271 104.967 1.46666C104.75 1.81728 104.605 2.31124 104.509 3C104.366 4.03514 104.333 5.51026 104.333 7.59999C104.467 12.2667 105.133 15.6 106.733 17.3333C110.467 21.7333 118.333 27.3333 120.867 27.3333C122.2 27.3333 123 27.7333 122.733 28.2667C119.8 34.2667 118.067 36.5333 113.933 39.3333C109.667 42.1333 107.133 42.6667 96.2 43.0667C84.6 43.4667 82.6 43.2 75.9334 40.1333C64.7334 34.8 64.4667 33.8667 71.6667 26.5333L77.8 20.1333L77.4 10.8C77.1095 4.69853 76.3265 1.34061 75 0.828445C74.5003 0.635503 73.9234 0.846421 73.2667 1.46666ZM145.667 32.2667C145.8 45.3333 148.2 73.7333 150.2 85.2C151.4 91.7333 152.333 101.067 152.333 106.133C152.333 114.133 153.533 120.667 159.133 142.667C159.933 145.6 161.4 149.733 162.467 151.733C163.533 153.867 164.333 158.133 164.333 161.333C164.333 164.533 165.133 167.733 166.2 168.533C167.267 169.333 168.333 172 168.733 174.4C169.133 176.8 169.8 180 170.333 181.467C171.133 183.867 170.6 184.4 166.6 185.2C161.933 186.133 157.533 188.267 143.4 196.667L135.667 201.333L114.333 201.2C86.6 201.2 67.5334 197.467 66.2 191.867C64.3334 184.4 68.3334 182.667 74.7334 188C79.1334 191.6 81 192.133 82.3334 189.867C83.9334 187.333 77.5334 182.133 68.4667 178.667C63.6667 176.8 58.6 174.533 57.4 173.467C54.0667 171.067 55.6667 166 59.8 166C65.1334 166 63.9334 161.2 58.4667 160.133C51.5334 158.8 50.2 156.267 53 150.133C56.2 142.933 55.2667 140.267 49.6667 139.333C41.5334 137.867 37 135.067 36.6 130.8C36.2 127.6 36.4667 127.067 38.6 127.867C41.5334 129.067 41.2667 129.067 46.7334 128.8C52.7334 128.667 52.3334 125.2 46.0667 123.467C43.2667 122.667 40.2 122 39.4 122C37.1334 122 37.2667 119.6 39.5334 113.067C41.6667 106.933 43 41.8667 41.1334 34.5333C39.9334 29.8667 39 30.4 52.2 27.8667C55.2667 27.3333 56.3334 27.7333 56.8667 29.7333C58.6 34.8 69.1334 44.2667 75.8 46.5333C83 48.9333 105.8 49.7333 110.333 47.7333C116.333 45.2 122.867 40.2667 123.667 38C124.067 36.6667 125.267 35.2 126.2 34.9333C127.267 34.5333 128.467 32.4 129 30.1333C129.8 26.1333 130.067 26 137.8 26H145.667V32.2667ZM157.4 40.5333C161 46.4 165.533 56.8 169.4 68C170.2 70.1333 172.6 76.8 174.733 82.6667C176.867 88.5333 179.667 98.5333 180.867 104.667C182.067 110.933 184.333 119.467 185.667 123.733C187.267 128.4 188.333 134.933 188.333 140.667V150L183.533 152C180.867 153.067 176.733 154 174.467 154C171 154 169.933 153.2 168.067 149.6C163.267 140 157.933 114.667 157.133 97.3333C156.6 89.2 155.667 80.5333 155 78C153.4 72.8 150.867 36.6667 151.8 35.0667C152.867 33.3333 153.267 33.7333 157.4 40.5333ZM36.8667 73.8667C36.2 96.5333 35.4 106.8 33.9334 110.667C32.8667 113.6 31.4 121.333 30.8667 128C27.9334 159.333 27.9334 159.333 18.2 159.333C11.9334 159.333 10.7334 158.933 8.73336 155.867C6.0667 151.733 4.73336 137.733 6.73336 133.6C7.40003 132 8.8667 128 9.80003 124.667C10.7334 121.333 11.9334 118 12.4667 117.2C13.1334 116.533 14.2 111.733 14.8667 106.533C16.8667 92.5333 18.3334 86 21.4 78C22.8667 74 25.1334 67.0667 26.4667 62.6667C30.0667 50.2667 34.7334 40.4 36.4667 41.3333C37.5334 42 37.6667 51.3333 36.8667 73.8667ZM45.5334 144.667C48.7334 144.667 49 145.867 46.7334 150.667C45 154.533 44.2 154.667 39 152C35.5334 150.267 35 149.2 35 144.533V139.2L38.8667 141.867C41 143.467 44.0667 144.667 45.5334 144.667ZM38.6 158.267C40.6 159.2 42.4667 160 42.7334 160C42.8667 160.133 42.3334 162.133 41.5334 164.533C40.4667 167.467 39.4 168.533 38.0667 168.133C37 167.733 34.8667 167.333 33.2667 167.333C31.1334 167.333 30.8667 166.933 32.0667 165.733C33 164.8 33.6667 162.4 33.6667 160.4C33.6667 156.133 33.6667 156.133 38.6 158.267ZM50.3334 167.2C49.9334 168.8 48.6 170 47.5334 170C45.2667 170 45.2667 169.867 47 165.2C48.7334 160.8 51.8 162.667 50.3334 167.2ZM37.8 174C41.5334 176 41.1334 180.933 37.4 180.4C35.1334 180.133 34.2 178.933 33.9334 176.267C33.4 172.267 33.9334 172 37.8 174ZM47 179.333C47 181.467 46.4667 183.333 45.9334 183.333C45.2667 183.333 45 181.467 45.4 179.333C45.6667 177.067 46.2 175.333 46.4667 175.333C46.7334 175.333 47 177.067 47 179.333ZM57.6667 180C61.1334 181.733 61.5334 182.533 60.7334 186.4C60.3334 188.667 59.8 190.8 59.8 190.933C59.6667 191.067 58.0667 190.4 56.3334 189.6C53.8 188.4 52.8667 186.667 52.6 182.933C52.0667 177.333 52.3334 177.2 57.6667 180Z" fill="black"/>
<path d="M75 0.828445L104.967 1.46666C104.75 1.81728 104.605 2.31124 104.509 3L75 0.828445Z" fill="black"/>
<path d="M104.333 7.59999C104.467 12.2667 105.133 15.6 106.733 17.3333C110.467 21.7333 118.333 27.3333 120.867 27.3333C122.2 27.3333 123 27.7333 122.733 28.2667C119.8 34.2667 118.067 36.5333 113.933 39.3333C109.667 42.1333 107.133 42.6667 96.2 43.0667C84.6 43.4667 82.6 43.2 75.9334 40.1333C64.7334 34.8 64.4667 33.8667 71.6667 26.5333L77.8 20.1333L77.4 10.8C77.1095 4.69853 76.3265 1.34061 75 0.828445L104.509 3C104.366 4.03514 104.333 5.51026 104.333 7.59999Z" fill="currentcolor"/>
<path d="M36.8667 73.8667C36.2 96.5333 35.4 106.8 33.9334 110.667C32.8667 113.6 31.4 121.333 30.8667 128C27.9334 159.333 27.9334 159.333 18.2 159.333C11.9334 159.333 10.7334 158.933 8.73336 155.867C6.0667 151.733 4.73336 137.733 6.73336 133.6C7.40003 132 8.8667 128 9.80003 124.667C10.7334 121.333 11.9334 118 12.4667 117.2C13.1334 116.533 14.2 111.733 14.8667 106.533C16.8667 92.5333 18.3334 86 21.4 78C22.8667 74 25.1334 67.0667 26.4667 62.6667C30.0667 50.2667 34.7334 40.4 36.4667 41.3333C37.5334 42 37.6667 51.3333 36.8667 73.8667Z" fill="currentcolor"/>
<path d="M157.4 40.5333C161 46.4 165.533 56.8 169.4 68C170.2 70.1333 172.6 76.8 174.733 82.6667C176.867 88.5333 179.667 98.5333 180.867 104.667C182.067 110.933 184.333 119.467 185.667 123.733C187.267 128.4 188.333 134.933 188.333 140.667V150L183.533 152C180.867 153.067 176.733 154 174.467 154C171 154 169.933 153.2 168.067 149.6C163.267 140 157.933 114.667 157.133 97.3333C156.6 89.2 155.667 80.5333 155 78C153.4 72.8 150.867 36.6667 151.8 35.0667C152.867 33.3333 153.267 33.7333 157.4 40.5333Z" fill="currentcolor"/>
<path d="M145.667 32.2667C145.8 45.3333 148.2 73.7333 150.2 85.2C151.4 91.7333 152.333 101.067 152.333 106.133C152.333 114.133 153.533 120.667 159.133 142.667C159.933 145.6 161.4 149.733 162.467 151.733C163.533 153.867 164.333 158.133 164.333 161.333C164.333 164.533 165.133 167.733 166.2 168.533C167.267 169.333 168.333 172 168.733 174.4C169.133 176.8 169.8 180 170.333 181.467C171.133 183.867 170.6 184.4 166.6 185.2C161.933 186.133 157.533 188.267 143.4 196.667L135.667 201.333L114.333 201.2C86.6 201.2 67.5334 197.467 66.2 191.867C64.3334 184.4 68.3334 182.667 74.7334 188C79.1334 191.6 81 192.133 82.3334 189.867C83.9334 187.333 77.5334 182.133 68.4667 178.667C63.6667 176.8 58.6 174.533 57.4 173.467C54.0667 171.067 55.6667 166 59.8 166C65.1334 166 63.9334 161.2 58.4667 160.133C51.5334 158.8 50.2 156.267 53 150.133C56.2 142.933 55.2667 140.267 49.6667 139.333C41.5334 137.867 37 135.067 36.6 130.8C36.2 127.6 36.4667 127.067 38.6 127.867C41.5334 129.067 41.2667 129.067 46.7334 128.8C52.7334 128.667 52.3334 125.2 46.0667 123.467C43.2667 122.667 40.2 122 39.4 122C37.1334 122 37.2667 119.6 39.5334 113.067C41.6667 106.933 43 41.8667 41.1334 34.5333C39.9334 29.8667 39 30.4 52.2 27.8667C55.2667 27.3333 56.3334 27.7333 56.8667 29.7333C58.6 34.8 69.1334 44.2667 75.8 46.5333C83 48.9333 105.8 49.7333 110.333 47.7333C116.333 45.2 122.867 40.2667 123.667 38C124.067 36.6667 125.267 35.2 126.2 34.9333C127.267 34.5333 128.467 32.4 129 30.1333C129.8 26.1333 130.067 26 137.8 26H145.667V32.2667Z" fill="current"/>
<path d="M45.5334 144.667C48.7334 144.667 49 145.867 46.7334 150.667C45 154.533 44.2 154.667 39 152C35.5334 150.267 35 149.2 35 144.533V139.2L38.8667 141.867C41 143.467 44.0667 144.667 45.5334 144.667Z" fill="current"/>
<path d="M38.6 158.267C40.6 159.2 42.4667 160 42.7334 160C42.8667 160.133 42.3334 162.133 41.5334 164.533C40.4667 167.467 39.4 168.533 38.0667 168.133C37 167.733 34.8667 167.333 33.2667 167.333C31.1334 167.333 30.8667 166.933 32.0667 165.733C33 164.8 33.6667 162.4 33.6667 160.4C33.6667 156.133 33.6667 156.133 38.6 158.267Z" fill="current"/>
<path d="M50.3334 167.2C49.9334 168.8 48.6 170 47.5334 170C45.2667 170 45.2667 169.867 47 165.2C48.7334 160.8 51.8 162.667 50.3334 167.2Z" fill="current"/>
<path d="M57.6667 180C61.1334 181.733 61.5334 182.533 60.7334 186.4C60.3334 188.667 59.8 190.8 59.8 190.933C59.6667 191.067 58.0667 190.4 56.3334 189.6C53.8 188.4 52.8667 186.667 52.6 182.933C52.0667 177.333 52.3334 177.2 57.6667 180Z" fill="current"/>
<path d="M47 179.333C47 181.467 46.4667 183.333 45.9334 183.333C45.2667 183.333 45 181.467 45.4 179.333C45.6667 177.067 46.2 175.333 46.4667 175.333C46.7334 175.333 47 177.067 47 179.333Z" fill="current"/>
<path d="M37.8 174C41.5334 176 41.1334 180.933 37.4 180.4C35.1334 180.133 34.2 178.933 33.9334 176.267C33.4 172.267 33.9334 172 37.8 174Z" fill="current"/>
</svg>
