<svg width="68" height="73" viewBox="0 0 68 73" fill="none" xmlns="http://www.w3.org/2000/svg">
<g filter="url(#filter0_d_128_24)">
<path d="M38.5253 0.146014C33.7633 0.695965 29.068 1.91658 24.0126 3.91519C17.0363 6.69177 11.1939 10.139 7.89914 13.4253C5.93832 15.3837 4.77783 17.3689 4.77783 18.7639C4.77783 19.5687 5.15132 20.5344 5.7249 21.1917C6.6853 22.2916 8.93958 23.1232 11.514 23.3513C12.0342 23.3915 12.6478 23.4586 12.8879 23.4988L13.3147 23.5659L12.6478 24.3975C10.4469 27.1204 11.9008 29.3068 16.276 29.8568C19.1305 30.2055 25.2931 29.897 37.1914 28.7837C45.0347 28.046 47.249 27.9252 50.8638 28.0326C52.5578 28.0728 54.1719 28.1533 54.452 28.2203L54.9855 28.3142L53.6516 29.3337C50.9972 31.3725 47.1689 33.8674 38.2585 39.3401C21.5715 49.588 14.7687 54.1754 10.1801 58.2262C9.59318 58.7359 8.07255 60.2248 6.77867 61.5259C4.67112 63.6721 4.49771 63.8733 5.04461 63.6318C5.37808 63.4843 6.27179 63.1489 7.04545 62.8941C9.91332 61.9417 12.8079 60.2785 23.1855 53.6656C31.1089 48.6088 35.1239 46.1005 41.1264 42.4386C51.4374 36.1611 55.9993 33.076 58.547 30.675C59.1206 30.1519 59.6275 29.7227 59.7075 29.7227C60.001 29.7227 61.0681 30.8226 61.0681 31.1311C61.0681 31.5469 60.161 32.7273 59.254 33.5187C55.0122 37.1537 43.1139 44.3165 28.7879 51.8548C18.2101 57.4214 17.5565 57.7836 12.7145 60.815C8.9129 63.1892 7.1655 64.1952 5.97833 64.6915C5.57817 64.8525 6.31377 65 6.3938 65C6.75395 65 10.3135 64.0074 11.6474 63.6318C15.449 62.5722 22.1851 59.5541 29.2547 55.785C30.2152 55.2753 31.7758 54.4436 32.7229 53.9339C40.913 49.6148 50.0501 44.2762 55.3857 40.6948C60.5612 37.2074 62.4953 35.3563 63.2823 33.0894C63.9626 31.1713 63.4424 29.5885 61.7884 28.435C61.3882 28.1533 61.0814 27.8984 61.1081 27.8582C61.4149 27.3082 61.775 26.3559 61.8951 25.7925C62.0285 25.1755 62.0018 24.9609 61.7484 24.1158C61.1081 21.9965 59.0406 20.6954 54.7988 19.743C51.5841 19.0321 48.903 18.7505 44.1943 18.6431C39.7258 18.5358 34.5236 18.7907 23.519 19.6492C22.7187 19.7162 22.0384 19.7431 22.0117 19.7296C21.945 19.676 24.7062 18.1603 27.7875 16.5641C33.3098 13.707 39.8459 11.0243 45.3948 9.33422C48.1293 8.50258 52.3578 7.4161 53.7317 7.17466C55.319 6.9198 56.9463 6.94663 57.4132 7.24172L57.8 7.49658L57.5466 7.20148C57.3999 7.04052 56.9063 6.73201 56.4395 6.49057C55.5991 6.07475 55.5991 6.07475 53.9051 6.15523C50.6237 6.28937 44.2077 7.99288 37.925 10.4073C32.1226 12.6339 24.973 16.0275 20.1176 18.8712L18.1834 19.9979H14.3819C11.2205 19.9979 10.4069 19.9577 9.57984 19.7565C8.4327 19.4882 7.71239 19.0992 7.71239 18.7639C7.71239 18.3883 8.31265 17.1811 8.8462 16.4836C11.5273 12.9558 16.8896 9.18667 22.9321 6.58446C29.7216 3.66033 36.311 2.07755 42.5937 1.86293C46.3152 1.74221 48.8763 2.11779 50.7571 3.0299C51.8109 3.55302 53.0247 4.69317 53.1448 5.28336C53.2648 5.88696 53.4649 5.67235 53.4649 4.93461C53.4649 2.66774 51.1439 1.08495 46.662 0.280146C44.9146 -0.0283633 40.6995 -0.0954276 38.5253 0.146014ZM48.196 22.8147C51.9309 23.1769 55.359 23.9012 56.9063 24.639C57.3599 24.867 57.7333 25.1084 57.7333 25.2023C57.7333 25.5377 57.0531 26.3961 56.8396 26.3156C56.7329 26.2754 55.9192 26.1278 55.0255 26.0071C53.8384 25.8462 52.4778 25.7791 50.0635 25.7925C46.4753 25.7925 44.3811 25.9401 35.9909 26.7717C28.8813 27.4826 26.3068 27.6838 21.9717 27.8716C18.0234 28.046 16.0092 27.9387 14.7687 27.5094C14.1684 27.2948 13.5815 26.879 13.5815 26.651C13.5815 26.3425 14.5419 25.1621 15.3956 24.4243L16.3293 23.5927L18.8637 23.4988C20.251 23.4452 24.4794 23.2305 28.2543 23.0159C32.0292 22.7879 35.6708 22.5867 36.3244 22.5599C38.7787 22.466 46.2485 22.6135 48.196 22.8147Z" fill="currentcolor"/>
</g>
<defs>
<filter id="filter0_d_128_24" x="0.777832" y="0" width="66.7952" height="73" filterUnits="userSpaceOnUse" color-interpolation-filters="sRGB">
<feFlood flood-opacity="0" result="BackgroundImageFix"/>
<feColorMatrix in="SourceAlpha" type="matrix" values="0 0 0 0 0 0 0 0 0 0 0 0 0 0 0 0 0 0 127 0" result="hardAlpha"/>
<feOffset dy="4"/>
<feGaussianBlur stdDeviation="2"/>
<feComposite in2="hardAlpha" operator="out"/>
<feColorMatrix type="matrix" values="0 0 0 0 0 0 0 0 0 0 0 0 0 0 0 0 0 0 0.1 0"/>
<feBlend mode="normal" in2="BackgroundImageFix" result="effect1_dropShadow_128_24"/>
<feBlend mode="normal" in="SourceGraphic" in2="effect1_dropShadow_128_24" result="shape"/>
</filter>
</defs>
</svg>
