<svg width="471" height="158" viewBox="0 0 471 158" fill="none" xmlns="http://www.w3.org/2000/svg">
<g filter="url(#filter0_d_128_738)">
<path d="M121.434 0.564839C120.109 1.26853 118.247 3.33822 117.212 5.28373C115.97 7.64317 107.857 27.9675 104.587 36.9499C103.262 40.5926 100.447 48.209 98.3363 53.9214C94.0314 65.5944 92.2928 70.8928 91.2994 75.3219C90.7199 77.9297 90.3473 78.6334 88.6502 80.4548C85.2973 84.0146 83.0206 89.5614 82.4411 95.6877C82.11 99.1233 81.9858 99.4131 80.7026 100.489C79.9575 101.152 79.2952 101.607 79.2538 101.566C79.2124 101.524 79.4608 100.489 79.7919 99.2889C80.6612 96.3913 80.4128 88.361 79.378 85.3806C77.6395 80.5375 76.0665 77.9711 72.7136 74.6182C67.6636 69.5682 62.4894 67.0846 49.9471 63.8559C37.4461 60.6272 32.4375 58.5989 28.7535 55.2046C26.2284 52.9279 25.235 51.1894 24.5313 48.0021C23.2067 41.7516 25.1936 36.8671 31.8994 29.9958C43.5724 17.9502 61.4131 8.67802 72.962 8.59523C75.8595 8.59523 76.853 8.7608 78.4259 9.54728L80.3301 10.5407L79.7091 9.34031C76.3563 2.8415 65.0144 0.689027 53.8381 4.45586C37.9843 9.75426 20.6817 23.2072 15.8386 33.8868C11.8648 42.7451 12.6513 51.5205 18.1567 59.3853C22.8755 66.1325 29.126 69.2371 50.154 75.2805C60.2541 78.1781 64.7246 80.8273 66.9599 85.422C67.9533 87.4503 68.0361 87.9884 67.8291 90.4307C67.5394 93.4524 65.8422 97.509 63.814 100.075C60.1299 104.711 49.3675 110.3 38.5638 113.156C34.7555 114.191 33.4723 114.315 28.2153 114.315C22.9997 114.356 21.5923 114.191 17.5771 113.156C10.2505 111.334 8.5947 109.679 8.84307 104.505C8.92585 102.973 8.96725 101.731 8.92585 101.731C8.76028 101.731 6.48362 105.746 5.28321 108.147C4.24836 110.217 4.04139 111.128 4 113.735C4 116.385 4.16557 117.212 5.20042 119.241C7.47707 123.711 11.8648 126.899 18.9431 129.299C21.3854 130.086 23.2895 130.417 27.1391 130.583C33.4309 130.872 39.433 129.879 47.836 127.106C60.5438 122.966 69.071 117.709 74.2038 110.796C75.9837 108.437 76.8944 107.65 79.4608 106.284C81.1579 105.374 82.6067 104.67 82.6481 104.711C82.6895 104.794 83.1862 106.036 83.7243 107.485C84.9662 110.921 87.4498 114.77 89.1469 115.805C90.7613 116.798 93.576 116.881 95.2732 116.012C95.9355 115.681 96.9703 114.522 97.5912 113.487C98.5847 111.79 98.7503 110.921 99.04 106.533C99.5781 97.8815 99.9507 94.2389 100.282 94.0319C100.82 93.7008 111.541 103.677 118.868 111.293C122.634 115.226 126.898 119.448 128.388 120.648C131.617 123.339 135.467 125.326 137.371 125.326C138.323 125.326 139.316 125.74 140.351 126.567C142.503 128.306 145.815 129.465 149.292 129.755C151.527 129.92 152.769 130.293 154.715 131.369C163.242 136.088 177.688 137.909 186.753 135.426C191.1 134.225 194.328 132.776 198.095 130.251C200.372 128.761 200.662 128.637 201.738 129.092C203.725 129.92 210.927 129.341 213.949 128.14C217.426 126.733 222.021 123.587 225.705 120.027L228.892 117.047L229.182 124.787C229.43 132.197 230.051 137.909 231.086 142.711C231.459 144.532 231.955 145.319 233.694 147.057C237.957 151.321 243.049 150.907 245.657 146.105C247.147 143.373 247.354 141.428 246.567 137.744C245.657 133.522 244.994 122.842 245.284 116.633C245.491 110.631 246.278 105.374 248.264 96.2258C249.465 90.5962 249.92 89.2716 251.576 86.4155C253.232 83.5179 253.604 83.104 254.639 83.104C256.295 83.104 262.669 81.1998 265.608 79.8339C266.974 79.2129 268.92 78.0125 269.872 77.1847C270.865 76.3154 271.859 75.6531 272.107 75.6531C272.356 75.6531 271.611 74.908 270.534 73.9559C268.092 71.9276 264.242 69.9821 261.842 69.6096L260.103 69.3612L261.345 66.5879C263.166 62.5727 266.478 53.4246 268.382 47.2984C269.748 42.952 270.079 41.0893 270.245 37.5295C270.451 33.6798 270.369 32.9761 269.582 31.486C266.974 26.3117 259.855 25.2355 256.005 29.3749C255.508 29.913 254.06 32.6864 252.818 35.5012C251.617 38.3573 249.713 42.5381 248.678 44.8147C245.864 50.7754 243.297 57.1087 240.565 64.6424C239.282 68.2436 237.916 71.3481 237.585 71.5551C237.254 71.7207 234.191 72.176 230.796 72.5486C222.807 73.4178 219.247 74.1215 218.213 75.0322C217.054 76.1084 217.136 78.3023 218.378 79.5855C220.489 81.6966 226.574 83.9318 231.997 84.5941C233.942 84.8011 234.356 84.9667 234.191 85.5462C234.066 85.9187 233.57 87.8642 233.073 89.9339C232.08 94.1561 231.748 94.6114 224.629 99.9926C217.509 105.415 215.605 106.74 209.189 110.548C197.226 117.709 191.596 120.358 184.477 122.221C180.379 123.256 174.749 123.628 174.749 122.842C174.749 122.594 174.915 122.428 175.08 122.428C175.577 122.428 181.703 117.792 188.202 112.535C198.675 104.008 205.215 97.0123 207.74 91.5483C208.733 89.4786 208.899 88.5679 208.899 85.5876C208.899 82.6486 208.733 81.6966 207.781 79.7097C205.919 75.7359 202.235 72.6727 197.267 70.9342C196.067 70.4789 193.335 70.1063 190.479 69.9821C186.339 69.7752 185.098 69.8994 181.082 70.81C173.714 72.5072 164.442 76.7707 157.529 81.6966C151.983 85.6704 146.312 92.3348 143.952 97.6746C141.634 102.932 140.972 110.01 142.296 115.143C142.959 117.751 145.194 122.718 146.477 124.456L147.222 125.45L145.484 125.201C142.835 124.746 141.551 124.084 141.924 123.297C142.09 122.925 142.255 121.6 142.255 120.358C142.255 117.585 141.303 116.012 137.95 113.321C135.922 111.666 115.473 91.2999 115.68 91.1343C115.722 91.0929 117.17 89.9753 118.868 88.6093C130.334 79.5027 140.227 68.5334 156.66 46.5533C163.697 37.1983 166.884 32.2724 168.126 28.9609C170.279 23.2486 168.416 20.4752 163.863 22.5863C159.847 24.4076 154.922 29.7888 143.787 44.4422C134.018 57.3157 129.713 62.6555 119.654 74.4113C115.473 79.3371 111.541 83.9732 110.92 84.7183L109.844 86.1257L106.905 83.8904C105.29 82.69 103.966 81.531 103.966 81.3654C103.966 81.1998 104.959 79.5027 106.201 77.64C110.216 71.4723 113.362 65.346 116.798 57.1087C126.07 34.7147 129.506 21.8412 129.671 8.88498C129.754 4.62143 129.671 3.83495 128.926 2.92428C126.939 0.23369 123.918 -0.718366 121.434 0.564839ZM195.694 84.1388C198.385 85.8773 198.551 87.4089 196.564 91.5897C194.825 95.1909 192.466 98.0471 186.091 104.298C176.943 113.239 166.843 121.186 164.649 121.186C163.118 121.186 159.558 119.241 157.819 117.461C155.501 115.101 154.756 112.535 154.963 107.982C155.087 104.918 155.336 104.049 156.536 101.731C158.233 98.5852 162.662 93.9905 166.512 91.4241C170.361 88.8577 177.73 85.3392 181.786 84.1388C184.808 83.2281 185.925 83.104 189.899 83.2281C193.542 83.3523 194.784 83.5179 195.694 84.1388ZM231.252 97.1364C229.844 99.9098 224.629 107.857 221.359 112.204C217.136 117.916 214.115 121.269 211.672 122.925C209.851 124.167 204.553 126.278 204.18 125.905C204.056 125.822 205.919 123.794 208.319 121.476C212.914 117.047 218.006 111.21 222.228 105.664C226.367 100.2 231.624 94.4458 231.79 95.1909C231.873 95.5635 231.624 96.4327 231.252 97.1364Z" fill="#DEB6AB"/>
<path d="M349.474 6.18822C346.659 7.51282 346.577 7.59561 337.636 27.9613C334.159 35.9503 327.66 51.9283 324.804 59.6275C320.167 72.1284 316.401 85.3744 315.324 92.7425C314.786 96.4266 312.841 101.311 308.867 108.762C302.699 120.476 298.601 124.988 290.736 128.755C282.127 132.894 272.399 133.143 268.922 129.293C265.486 125.526 266.604 118.696 272.399 107.644C277.739 97.5028 283.161 90.2589 289.122 85.333C293.634 81.6076 296.656 79.7449 300.174 78.4617C304.272 76.9715 305.017 76.9715 305.969 78.5859C306.425 79.3724 306.921 80.5728 307.046 81.2765C307.335 82.5183 307.418 82.3941 308.453 79.2482C309.074 77.3855 309.571 75.2744 309.571 74.5707C309.571 71.9629 307.335 69.2723 304.355 68.3202C302.161 67.5751 296.656 68.0305 293.841 69.1481C289.329 70.928 283.079 75.1502 278.07 79.8277C272.358 85.0847 264.783 95.8057 260.022 105.368C254.103 117.123 253.151 125.361 256.794 132.729C262.961 145.354 279.395 147.962 297.153 139.145C305.555 135.006 312.551 127.803 318.098 117.579L319.174 115.592L321.244 116.668C324.058 118.117 326.915 118.282 330.185 117.206C334.655 115.675 339.084 112.446 346.411 105.368C354.317 97.7098 362.306 91.1696 363.3 91.5835C363.796 91.7491 362.803 98.1651 361.313 104.291C358.581 115.55 358.25 117.579 358.208 123.167C358.208 128.093 358.291 128.714 359.243 130.618C360.402 132.936 362.472 134.55 364.335 134.55C367.812 134.55 370.254 130.742 371.661 123.126C372.117 120.601 373.151 115.757 373.938 112.363C377.663 96.5921 378.408 89.5552 376.877 84.381C375.345 79.124 370.337 75.3986 365.452 75.8953C358.25 76.6818 350.55 81.856 336.477 95.4331C332.213 99.5725 329.481 101.849 328.819 101.849C328.446 101.849 328.902 96.7577 329.481 94.0257C329.729 92.9909 332.917 85.0847 336.642 76.4334C350.84 43.3598 352.62 38.6409 356.511 24.2359C357.546 20.3449 358.622 16.5367 358.829 15.7088C359.905 11.8592 358.953 8.50627 356.304 6.76774C354.193 5.36035 351.668 5.15338 349.474 6.18822Z" fill="#DEB6AB"/>
<path d="M434.274 10.689C417.592 13.7107 394.37 30.0199 386.547 44.2179C379.965 56.2221 387.209 67.7296 403.973 71.9103C406.623 72.614 409.686 73.2763 410.762 73.4005C420.283 74.7251 427.651 76.2567 431.583 77.7883C441.766 81.6793 450.707 94.3871 451.328 105.895C451.783 113.884 448.472 118.768 439.448 123.446C434.895 125.805 430.631 127.254 425.664 128.04C420.738 128.827 415.439 128.371 409.644 126.591C407.492 125.971 404.884 125.184 403.849 124.936C401.78 124.398 400.745 123.611 399.875 121.955C399.213 120.672 399.13 118.023 399.71 116.491C400.331 114.877 399.958 115.167 398.178 117.816C394.743 122.866 394.205 124.108 393.998 127.254C393.791 130.772 394.287 132.635 396.274 135.574C399.668 140.665 406.126 143.397 417.012 144.349C433.653 145.84 454.35 136.857 462.504 124.605C465.402 120.3 466.064 118.023 466.271 112.104C466.395 107.633 466.271 106.267 465.319 101.962C463.249 92.6486 459.441 84.6596 453.894 77.9952C449.051 72.1587 444.746 68.8472 438.04 65.7427C433.653 63.7144 428.396 62.3898 417.509 60.5685C405.257 58.5402 400.828 57.1328 398.965 54.7733C397.723 53.2418 397.806 52.2069 399.337 49.8061C402.732 44.4663 409.479 38.1744 417.799 32.6691C430.093 24.4731 440.938 20.7063 451.204 21.1202C458.241 21.41 459.814 22.3206 461.594 27.2051C462.132 28.6539 462.173 28.5711 462.173 25.0526C462.214 20.6649 461.718 19.3403 458.944 16.7739C456.419 14.4144 454.06 13.0484 450.003 11.6825C447.23 10.7718 445.822 10.5648 441.518 10.4406C438.661 10.3579 435.433 10.482 434.274 10.689Z" fill="#DEB6AB"/>
</g>
<defs>
<filter id="filter0_d_128_738" x="0" y="0" width="470.311" height="158" filterUnits="userSpaceOnUse" color-interpolation-filters="sRGB">
<feFlood flood-opacity="0" result="BackgroundImageFix"/>
<feColorMatrix in="SourceAlpha" type="matrix" values="0 0 0 0 0 0 0 0 0 0 0 0 0 0 0 0 0 0 127 0" result="hardAlpha"/>
<feOffset dy="4"/>
<feGaussianBlur stdDeviation="2"/>
<feComposite in2="hardAlpha" operator="out"/>
<feColorMatrix type="matrix" values="0 0 0 0 0 0 0 0 0 0 0 0 0 0 0 0 0 0 0.1 0"/>
<feBlend mode="normal" in2="BackgroundImageFix" result="effect1_dropShadow_128_738"/>
<feBlend mode="normal" in="SourceGraphic" in2="effect1_dropShadow_128_738" result="shape"/>
</filter>
</defs>
</svg>
