<svg width="128" height="28" viewBox="0 0 128 28" fill="none" xmlns="http://www.w3.org/2000/svg">
<path d="M9.06563 27.324C7.50563 27.324 6.10163 27.048 4.85363 26.496C3.62963 25.92 2.65763 25.152 1.93763 24.192C1.21763 23.208 0.833627 22.116 0.785627 20.916H5.03363C5.10563 21.756 5.50163 22.464 6.22163 23.04C6.96563 23.592 7.88963 23.868 8.99363 23.868C10.1456 23.868 11.0336 23.652 11.6576 23.22C12.3056 22.764 12.6296 22.188 12.6296 21.492C12.6296 20.748 12.2696 20.196 11.5496 19.836C10.8536 19.476 9.73763 19.08 8.20163 18.648C6.71363 18.24 5.50163 17.844 4.56563 17.46C3.62963 17.076 2.81363 16.488 2.11763 15.696C1.44563 14.904 1.10963 13.86 1.10963 12.564C1.10963 11.508 1.42163 10.548 2.04563 9.684C2.66963 8.796 3.55763 8.1 4.70963 7.596C5.88563 7.092 7.22963 6.84 8.74163 6.84C10.9976 6.84 12.8096 7.416 14.1776 8.568C15.5696 9.696 16.3136 11.244 16.4096 13.212H12.3056C12.2336 12.324 11.8736 11.616 11.2256 11.088C10.5776 10.56 9.70163 10.296 8.59763 10.296C7.51763 10.296 6.68963 10.5 6.11363 10.908C5.53763 11.316 5.24963 11.856 5.24963 12.528C5.24963 13.056 5.44163 13.5 5.82563 13.86C6.20963 14.22 6.67763 14.508 7.22963 14.724C7.78163 14.916 8.59763 15.168 9.67763 15.48C11.1176 15.864 12.2936 16.26 13.2056 16.668C14.1416 17.052 14.9456 17.628 15.6176 18.396C16.2896 19.164 16.6376 20.184 16.6616 21.456C16.6616 22.584 16.3496 23.592 15.7256 24.48C15.1016 25.368 14.2136 26.064 13.0616 26.568C11.9336 27.072 10.6016 27.324 9.06563 27.324ZM27.1441 17.1L36.2881 27H30.7441L23.4001 18.468V27H19.2961V0.36H23.4001V15.84L30.6001 7.164H36.2881L27.1441 17.1ZM55.6097 16.596C55.6097 17.34 55.5617 18.012 55.4657 18.612H40.3097C40.4297 20.196 41.0177 21.468 42.0737 22.428C43.1297 23.388 44.4257 23.868 45.9617 23.868C48.1697 23.868 49.7297 22.944 50.6417 21.096H55.0697C54.4697 22.92 53.3777 24.42 51.7937 25.596C50.2337 26.748 48.2897 27.324 45.9617 27.324C44.0657 27.324 42.3617 26.904 40.8497 26.064C39.3617 25.2 38.1857 24 37.3217 22.464C36.4817 20.904 36.0617 19.104 36.0617 17.064C36.0617 15.024 36.4697 13.236 37.2857 11.7C38.1257 10.14 39.2897 8.94 40.7777 8.1C42.2897 7.26 44.0177 6.84 45.9617 6.84C47.8337 6.84 49.5017 7.248 50.9657 8.064C52.4297 8.88 53.5697 10.032 54.3857 11.52C55.2017 12.984 55.6097 14.676 55.6097 16.596ZM51.3257 15.3C51.3017 13.788 50.7617 12.576 49.7057 11.664C48.6497 10.752 47.3417 10.296 45.7817 10.296C44.3657 10.296 43.1537 10.752 42.1457 11.664C41.1377 12.552 40.5377 13.764 40.3457 15.3H51.3257ZM62.6364 10.512V21.492C62.6364 22.236 62.8044 22.776 63.1404 23.112C63.5004 23.424 64.1004 23.58 64.9404 23.58H67.4604V27H64.2204C62.3724 27 60.9564 26.568 59.9724 25.704C58.9884 24.84 58.4964 23.436 58.4964 21.492V10.512H56.1564V7.164H58.4964V2.232H62.6364V7.164H67.4604V10.512H62.6364ZM68.075 17.064C68.075 15.024 68.483 13.236 69.299 11.7C70.139 10.14 71.291 8.94 72.755 8.1C74.219 7.26 75.899 6.84 77.795 6.84C80.195 6.84 82.175 7.416 83.735 8.568C85.319 9.696 86.387 11.316 86.939 13.428H82.511C82.151 12.444 81.575 11.676 80.783 11.124C79.991 10.572 78.995 10.296 77.795 10.296C76.115 10.296 74.771 10.896 73.763 12.096C72.779 13.272 72.287 14.928 72.287 17.064C72.287 19.2 72.779 20.868 73.763 22.068C74.771 23.268 76.115 23.868 77.795 23.868C80.171 23.868 81.743 22.824 82.511 20.736H86.939C86.363 22.752 85.283 24.36 83.699 25.56C82.115 26.736 80.147 27.324 77.795 27.324C75.899 27.324 74.219 26.904 72.755 26.064C71.291 25.2 70.139 24 69.299 22.464C68.483 20.904 68.075 19.104 68.075 17.064ZM99.4889 6.84C101.001 6.84 102.345 7.164 103.521 7.812C104.721 8.46 105.657 9.42 106.329 10.692C107.025 11.964 107.373 13.5 107.373 15.3V27H103.305V15.912C103.305 14.136 102.861 12.78 101.973 11.844C101.085 10.884 99.8729 10.404 98.3369 10.404C96.8009 10.404 95.5769 10.884 94.6649 11.844C93.7769 12.78 93.3329 14.136 93.3329 15.912V27H89.2289V0.36H93.3329V9.468C94.0289 8.628 94.9049 7.98 95.9609 7.524C97.0409 7.068 98.2169 6.84 99.4889 6.84ZM119.052 27.252C117.372 27.252 115.86 26.964 114.516 26.388C113.172 25.788 112.116 24.948 111.348 23.868C110.58 22.788 110.196 21.528 110.196 20.088H114.588C114.684 21.168 115.104 22.056 115.848 22.752C116.616 23.448 117.684 23.796 119.052 23.796C120.468 23.796 121.572 23.46 122.364 22.788C123.156 22.092 123.552 21.204 123.552 20.124C123.552 19.284 123.3 18.6 122.796 18.072C122.316 17.544 121.704 17.136 120.96 16.848C120.24 16.56 119.232 16.248 117.936 15.912C116.304 15.48 114.972 15.048 113.94 14.616C112.932 14.16 112.068 13.464 111.348 12.528C110.628 11.592 110.268 10.344 110.268 8.784C110.268 7.344 110.628 6.084 111.348 5.004C112.068 3.924 113.076 3.096 114.372 2.52C115.668 1.944 117.168 1.656 118.872 1.656C121.296 1.656 123.276 2.268 124.812 3.492C126.372 4.692 127.236 6.348 127.404 8.46H122.868C122.796 7.548 122.364 6.768 121.572 6.12C120.78 5.472 119.736 5.148 118.44 5.148C117.264 5.148 116.304 5.448 115.56 6.048C114.816 6.648 114.444 7.512 114.444 8.64C114.444 9.408 114.672 10.044 115.128 10.548C115.608 11.028 116.208 11.412 116.928 11.7C117.648 11.988 118.632 12.3 119.88 12.636C121.536 13.092 122.88 13.548 123.912 14.004C124.968 14.46 125.856 15.168 126.576 16.128C127.32 17.064 127.692 18.324 127.692 19.908C127.692 21.18 127.344 22.38 126.648 23.508C125.976 24.636 124.98 25.548 123.66 26.244C122.364 26.916 120.828 27.252 119.052 27.252Z" fill="black"/>
</svg>
