<svg width="196" height="100" viewBox="0 0 196 168" fill="none" xmlns="http://www.w3.org/2000/svg">
<path d="M20.2465 3.14139C19.3132 5.00805 18.6465 7.67472 18.6465 9.14139C18.6465 11.4081 17.8465 13.2747 10.2465 29.1414C8.24654 33.1414 6.64655 38.0747 6.64655 39.9414C6.64655 41.8081 6.11321 43.8081 5.44655 44.4747C4.77988 45.2747 3.97988 48.4747 3.57988 51.8081C3.17988 55.1414 2.24655 60.4747 1.44655 63.8081C-0.686787 73.4081 -0.420121 117.941 1.97988 124.741C3.84655 130.208 10.3799 141.008 15.8465 147.808C17.4465 149.808 18.6465 153.141 18.6465 155.941C18.6465 159.275 19.3132 161.141 21.0465 161.808C22.2465 162.341 34.9132 163.008 48.9132 163.141C68.1132 163.408 74.9132 163.008 75.9799 161.808C76.7799 160.875 77.3132 157.541 77.0465 154.341C76.9132 149.275 80.2465 137.675 85.3132 125.808C85.9799 124.341 87.4465 115.675 88.7799 106.475C89.9799 97.2747 91.5799 89.2747 92.1132 88.4747C92.7799 87.8081 93.3132 81.1414 93.3132 73.5414V59.8081H97.1799C100.38 59.8081 101.047 60.4747 101.847 63.9414C102.247 66.2081 102.647 70.0747 102.647 72.3414C102.647 77.1414 107.58 95.6747 109.447 97.9414C110.113 98.7414 111.58 103.941 112.647 109.275C113.58 114.741 115.313 120.875 116.247 123.141C118.78 128.875 127.18 141.408 130.513 144.341C132.647 146.341 133.313 148.475 133.313 153.808C133.313 163.408 135.18 164.741 149.313 165.675C155.58 166.075 164.647 166.741 169.58 167.275C181.047 168.208 183.98 166.741 183.98 160.075C183.98 157.408 183.313 154.208 182.647 153.141C181.713 151.675 182.38 150.075 185.18 147.141C187.313 145.008 190.647 139.941 192.647 136.075C196.247 129.141 196.38 128.475 195.58 113.941C194.513 95.9414 192.247 77.4081 190.647 73.8081C189.98 72.3414 189.18 69.0081 188.78 66.4747C187.58 57.4081 184.913 48.6081 181.713 42.6081C177.98 35.8081 169.447 13.1414 168.38 7.40805C167.847 4.47472 167.047 3.80806 163.713 3.80806C161.58 3.80806 156.113 5.54139 151.58 7.80806C124.113 20.8747 110.647 25.2747 105.847 22.7414C101.98 20.7414 90.9132 18.2081 81.3132 17.0081C58.2465 14.0747 41.5799 10.6081 36.9132 7.40805C35.0465 6.20805 33.0465 5.14139 32.5132 5.14139C32.1132 5.14139 30.2465 3.94138 28.3799 2.47472C23.8465 -0.991951 22.1132 -0.858612 20.2465 3.14139ZM29.4465 10.3414C31.1799 11.6747 34.7799 13.4081 37.3132 14.2081C51.7132 18.7414 56.3799 19.8081 61.8465 19.8081C65.1799 19.8081 68.2465 20.3414 68.6465 21.1414C69.0465 21.8081 73.1799 22.4747 77.7132 22.4747C82.3799 22.4747 87.5799 23.408 89.8465 24.4747C91.8465 25.5414 95.5799 26.4747 98.1132 26.4747C100.513 26.4747 102.913 27.1414 103.447 27.9414C103.98 29.0081 107.047 29.2747 111.98 28.7414C119.18 28.0747 129.847 24.2081 152.38 13.8081C160.247 10.3414 163.98 10.2081 163.98 13.4081C163.98 14.3414 166.647 21.5414 169.847 29.5414L175.713 43.8081H167.847C160.78 43.8081 159.98 43.4081 157.313 39.8081C155.713 37.5414 153.713 35.8081 152.913 35.9414C151.98 36.0747 150.247 35.8081 148.913 35.1414C144.513 33.2747 143.313 36.6081 146.78 40.8747C152.513 47.8081 157.447 50.3414 164.38 49.5414C167.713 49.1414 172.647 49.1414 175.18 49.6747C179.58 50.4747 179.847 51.0081 180.78 56.8747C181.18 60.3414 182.113 63.6747 182.647 64.4747C183.18 65.1414 183.98 68.0747 184.513 70.7414C184.913 73.5414 185.713 77.8081 186.113 80.3414L186.913 84.8747L179.713 85.6747C175.847 86.2081 169.713 86.6081 165.98 86.8747C160.78 87.0081 159.18 87.6747 158.913 89.5414C158.113 93.8081 159.847 98.4747 162.38 98.4747C166.38 98.4747 168.113 105.141 167.18 117.008C166.113 129.141 166.913 130.208 174.78 128.075L179.313 127.008L178.78 112.075L178.38 97.1414H183.047C185.713 97.1414 188.113 97.6747 188.513 98.2081C188.913 98.8747 189.58 105.408 190.113 112.741C190.913 125.008 190.78 126.741 187.98 132.341C186.38 135.808 184.38 139.275 183.447 140.208C177.447 146.875 176.913 147.808 178.513 149.675C179.713 151.008 179.713 151.808 178.647 152.475C177.713 153.008 177.447 155.008 177.98 157.141C178.38 159.275 178.247 161.275 177.447 161.808C176.513 162.341 175.98 160.341 175.98 155.941C175.98 152.208 175.447 149.141 174.647 149.141C173.98 149.141 172.913 149.141 172.38 149.141C171.713 149.141 171.047 151.808 170.647 155.141C169.847 162.475 167.447 163.141 166.913 156.208C166.78 153.408 166.247 150.341 165.98 149.275C164.78 146.075 161.447 150.208 160.913 155.541C160.513 159.541 160.38 159.275 160.247 153.675C160.113 149.141 159.313 146.475 158.113 146.075C155.313 145.008 154.647 146.341 154.647 153.408C154.647 159.408 154.38 159.808 151.313 159.808C148.38 159.808 148.113 159.408 149.313 157.275C151.18 153.675 151.047 148.475 148.913 146.608C146.647 144.741 145.313 146.075 145.313 149.941C145.313 151.675 144.78 153.408 143.98 153.808C143.313 154.208 142.647 155.808 142.647 157.275C142.647 158.875 141.98 159.808 141.047 159.541C138.78 158.741 137.98 149.541 139.847 147.275C141.047 145.941 140.113 144.341 135.98 140.741C133.047 138.208 130.647 135.541 130.647 134.741C130.647 134.075 129.713 132.608 128.513 131.675C125.58 129.275 119.18 115.141 118.113 108.475C117.58 105.541 115.313 97.9414 113.18 91.5414C111.047 85.2747 108.647 75.0081 107.98 68.8747C107.18 62.7414 106.38 57.1414 106.113 56.3414C105.713 55.5414 102.38 54.4747 98.3799 53.9414C94.5132 53.4081 89.9799 52.6081 88.3799 52.2081C85.9799 51.6747 85.3132 52.0747 85.3132 54.2081C85.3132 55.8081 85.9799 57.4081 86.7799 57.9414C90.9132 60.4747 83.0465 115.808 75.8465 134.475C73.4465 140.741 71.3132 148.608 70.9132 152.075C70.5132 156.475 69.8465 158.475 68.5132 158.475C67.3132 158.475 66.6465 157.008 66.6465 154.741C66.5132 150.341 63.8465 146.475 60.7799 146.475C58.3799 146.475 57.7132 151.141 59.9799 152.475C62.2465 153.808 61.5799 158.475 59.3132 157.675C58.1132 157.141 57.3132 155.141 57.3132 152.475C57.3132 148.208 54.6465 144.341 52.9132 146.075C52.3799 146.475 51.9799 149.275 51.9799 152.075C51.9799 159.141 49.8465 158.475 48.6465 151.008C47.9799 146.341 47.3132 145.141 45.5799 145.408C43.8465 145.808 43.3132 147.141 43.5799 151.541C43.9799 159.275 41.5799 158.608 41.0465 150.875C40.7799 146.075 40.1132 144.341 38.3799 144.075C36.3799 143.675 35.9799 144.608 35.9799 150.208C35.9799 154.875 35.4465 157.141 33.9799 157.675C32.3799 158.208 31.9799 157.141 31.9799 152.341C31.9799 148.075 31.3132 146.208 29.8465 145.541C26.9132 144.475 25.4465 147.408 26.1132 152.741C26.3799 155.141 25.9799 157.141 25.3132 157.141C24.5132 157.141 23.9799 155.275 23.9799 153.141C23.9799 148.875 21.5799 144.341 16.3799 138.608C14.6465 136.875 13.3132 134.875 13.3132 134.208C13.3132 133.541 12.1132 131.408 10.7799 129.408C9.31321 127.408 7.71321 123.008 7.31321 119.675L6.37988 113.541L13.3132 114.208C17.5799 114.608 21.3132 114.208 23.4465 113.141C26.3799 111.541 26.6465 110.475 26.6465 102.875C26.6465 95.6747 27.0465 94.4747 29.0465 94.4747C32.9132 94.4747 34.6465 91.6747 34.6465 85.1414C34.6465 78.2081 32.9132 75.8081 28.1132 75.8081C26.2465 75.8081 20.6465 74.4747 15.5799 72.7414C5.31321 69.4081 6.11321 71.5414 9.04655 55.1414C11.0465 44.0747 10.5132 44.4747 24.3799 44.8747L36.7799 45.4081L43.1799 39.5414C48.7799 34.6081 49.3132 33.5414 47.5799 32.0747C45.9799 30.7414 44.6465 31.2747 39.9799 35.1414C35.0465 39.2747 33.5799 39.8081 26.6465 39.8081C22.3799 39.8081 17.9799 39.4081 16.7799 39.0081C14.5132 38.0747 13.8465 33.808 15.8465 32.4747C16.5132 32.0747 17.5799 29.9414 17.9799 27.5414C18.5132 25.2747 20.1132 21.2747 21.4465 18.8747C22.9132 16.3414 23.9799 12.8747 23.9799 11.1414C23.9799 7.14139 25.1799 7.00805 29.4465 10.3414ZM16.6465 79.1414C19.5799 80.0747 23.4465 81.1414 25.3132 81.4081C27.5799 81.6747 28.7799 82.7414 29.0465 84.8747C29.4465 87.6747 29.1799 87.8081 23.8465 87.0081C11.3132 85.0081 7.31321 83.1414 6.91321 79.1414C6.51321 76.0747 6.77988 75.5414 8.91321 76.3414C10.2465 76.8747 13.7132 78.2081 16.6465 79.1414ZM17.5799 91.4081C21.4465 92.2081 21.4465 92.2081 21.0465 100.341C20.6465 107.941 20.3799 108.475 17.1799 108.875C15.3132 109.141 12.2465 108.608 10.2465 107.941C6.77988 106.608 6.64655 106.075 6.64655 97.6747V88.8747L10.1132 89.6747C12.1132 90.2081 15.4465 91.0081 17.5799 91.4081Z" fill="black"/>
<path d="M29.4465 10.3414C31.1799 11.6747 34.7799 13.4081 37.3132 14.2081C51.7132 18.7414 56.3799 19.8081 61.8465 19.8081C65.1799 19.8081 68.2465 20.3414 68.6465 21.1414C69.0465 21.8081 73.1799 22.4747 77.7132 22.4747C82.3799 22.4747 87.5799 23.408 89.8465 24.4747C91.8465 25.5414 95.5799 26.4747 98.1132 26.4747C100.513 26.4747 102.913 27.1414 103.447 27.9414C103.98 29.0081 107.047 29.2747 111.98 28.7414C119.18 28.0747 129.847 24.2081 152.38 13.8081C160.247 10.3414 163.98 10.2081 163.98 13.4081C163.98 14.3414 166.647 21.5414 169.847 29.5414L175.713 43.8081H167.847C160.78 43.8081 159.98 43.4081 157.313 39.8081C155.713 37.5414 153.713 35.8081 152.913 35.9414C151.98 36.0747 150.247 35.8081 148.913 35.1414C144.513 33.2747 143.313 36.6081 146.78 40.8747C152.513 47.8081 157.447 50.3414 164.38 49.5414C167.713 49.1414 172.647 49.1414 175.18 49.6747C179.58 50.4747 179.847 51.0081 180.78 56.8747C181.18 60.3414 182.113 63.6747 182.647 64.4747C183.18 65.1414 183.98 68.0747 184.513 70.7414C184.913 73.5414 185.713 77.8081 186.113 80.3414L186.913 84.8747L179.713 85.6747C175.847 86.2081 169.713 86.6081 165.98 86.8747C160.78 87.0081 159.18 87.6747 158.913 89.5414C158.113 93.8081 159.847 98.4747 162.38 98.4747C166.38 98.4747 168.113 105.141 167.18 117.008C166.113 129.141 166.913 130.208 174.78 128.075L179.313 127.008L178.78 112.075L178.38 97.1414H183.047C185.713 97.1414 188.113 97.6747 188.513 98.2081C188.913 98.8747 189.58 105.408 190.113 112.741C190.913 125.008 190.78 126.741 187.98 132.341C186.38 135.808 184.38 139.275 183.447 140.208C177.447 146.875 176.913 147.808 178.513 149.675C179.713 151.008 179.713 151.808 178.647 152.475C177.713 153.008 177.447 155.008 177.98 157.141C178.38 159.275 178.247 161.275 177.447 161.808C176.513 162.341 175.98 160.341 175.98 155.941C175.98 152.208 175.447 149.141 174.647 149.141H172.38C171.713 149.141 171.047 151.808 170.647 155.141C169.847 162.475 167.447 163.141 166.913 156.208C166.78 153.408 166.247 150.341 165.98 149.275C164.78 146.075 161.447 150.208 160.913 155.541C160.513 159.541 160.38 159.275 160.247 153.675C160.113 149.141 159.313 146.475 158.113 146.075C155.313 145.008 154.647 146.341 154.647 153.408C154.647 159.408 154.38 159.808 151.313 159.808C148.38 159.808 148.113 159.408 149.313 157.275C151.18 153.675 151.047 148.475 148.913 146.608C146.647 144.741 145.313 146.075 145.313 149.941C145.313 151.675 144.78 153.408 143.98 153.808C143.313 154.208 142.647 155.808 142.647 157.275C142.647 158.875 141.98 159.808 141.047 159.541C138.78 158.741 137.98 149.541 139.847 147.275C141.047 145.941 140.113 144.341 135.98 140.741C133.047 138.208 130.647 135.541 130.647 134.741C130.647 134.075 129.713 132.608 128.513 131.675C125.58 129.275 119.18 115.141 118.113 108.475C117.58 105.541 115.313 97.9414 113.18 91.5414C111.047 85.2747 108.647 75.0081 107.98 68.8747C107.18 62.7414 106.38 57.1414 106.113 56.3414C105.713 55.5414 102.38 54.4747 98.3799 53.9414C94.5132 53.4081 89.9799 52.6081 88.3799 52.2081C85.9799 51.6747 85.3132 52.0747 85.3132 54.2081C85.3132 55.8081 85.9799 57.4081 86.7799 57.9414C90.9132 60.4747 83.0465 115.808 75.8465 134.475C73.4465 140.741 71.3132 148.608 70.9132 152.075C70.5132 156.475 69.8465 158.475 68.5132 158.475C67.3132 158.475 66.6465 157.008 66.6465 154.741C66.5132 150.341 63.8465 146.475 60.7799 146.475C58.3799 146.475 57.7132 151.141 59.9799 152.475C62.2465 153.808 61.5799 158.475 59.3132 157.675C58.1132 157.141 57.3132 155.141 57.3132 152.475C57.3132 148.208 54.6465 144.341 52.9132 146.075C52.3799 146.475 51.9799 149.275 51.9799 152.075C51.9799 159.141 49.8465 158.475 48.6465 151.008C47.9799 146.341 47.3132 145.141 45.5799 145.408C43.8465 145.808 43.3132 147.141 43.5799 151.541C43.9799 159.275 41.5799 158.608 41.0465 150.875C40.7799 146.075 40.1132 144.341 38.3799 144.075C36.3799 143.675 35.9799 144.608 35.9799 150.208C35.9799 154.875 35.4465 157.141 33.9799 157.675C32.3799 158.208 31.9799 157.141 31.9799 152.341C31.9799 148.075 31.3132 146.208 29.8465 145.541C26.9132 144.475 25.4465 147.408 26.1132 152.741C26.3799 155.141 25.9799 157.141 25.3132 157.141C24.5132 157.141 23.9799 155.275 23.9799 153.141C23.9799 148.875 21.5799 144.341 16.3799 138.608C14.6465 136.875 13.3132 134.875 13.3132 134.208C13.3132 133.541 12.1132 131.408 10.7799 129.408C9.31321 127.408 7.71321 123.008 7.31321 119.675L6.37988 113.541L13.3132 114.208C17.5799 114.608 21.3132 114.208 23.4465 113.141C26.3799 111.541 26.6465 110.475 26.6465 102.875C26.6465 95.6747 27.0465 94.4747 29.0465 94.4747C32.9132 94.4747 34.6465 91.6747 34.6465 85.1414C34.6465 78.2081 32.9132 75.8081 28.1132 75.8081C26.2465 75.8081 20.6465 74.4747 15.5799 72.7414C5.31321 69.4081 6.11321 71.5414 9.04655 55.1414C11.0465 44.0747 10.5132 44.4747 24.3799 44.8747L36.7799 45.4081L43.1799 39.5414C48.7799 34.6081 49.3132 33.5414 47.5799 32.0747C45.9799 30.7414 44.6465 31.2747 39.9799 35.1414C35.0465 39.2747 33.5799 39.8081 26.6465 39.8081C22.3799 39.8081 17.9799 39.4081 16.7799 39.0081C14.5132 38.0747 13.8465 33.808 15.8465 32.4747C16.5132 32.0747 17.5799 29.9414 17.9799 27.5414C18.5132 25.2747 20.1132 21.2747 21.4465 18.8747C22.9132 16.3414 23.9799 12.8747 23.9799 11.1414C23.9799 7.14139 25.1799 7.00805 29.4465 10.3414Z" fill="currentcolor"/>
<path d="M17.5799 91.4081C21.4465 92.2081 21.4465 92.2081 21.0465 100.341C20.6465 107.941 20.3799 108.475 17.1799 108.875C15.3132 109.141 12.2465 108.608 10.2465 107.941C6.77988 106.608 6.64655 106.075 6.64655 97.6747V88.8747L10.1132 89.6747C12.1132 90.2081 15.4465 91.0081 17.5799 91.4081Z" fill="currentcolor"/>
<path d="M16.6465 79.1414C19.5799 80.0747 23.4465 81.1414 25.3132 81.4081C27.5799 81.6747 28.7799 82.7414 29.0465 84.8747C29.4465 87.6747 29.1799 87.8081 23.8465 87.0081C11.3132 85.0081 7.31321 83.1414 6.91321 79.1414C6.51321 76.0747 6.77988 75.5414 8.91321 76.3414C10.2465 76.8747 13.7132 78.2081 16.6465 79.1414Z" fill="currentcolor"/>
</svg>
