<svg width="166" height="100" viewBox="0 0 166 166" fill="none" xmlns="http://www.w3.org/2000/svg">
<path d="M4.75129 1.67793C2.75129 3.1446 2.35129 7.01127 1.81796 30.6113C1.41796 45.5446 0.75129 66.0779 0.35129 76.2113C-0.315376 90.6113 -0.0487098 94.6113 1.28462 95.0113C2.21796 95.2779 6.48462 96.3446 10.7513 97.2779L18.618 99.0113L17.818 112.345C17.418 119.811 16.7513 129.678 16.218 134.345C14.8846 148.345 16.4846 154.345 22.7513 160.078C27.5513 164.611 28.8846 165.145 35.1513 165.145C42.0846 165.145 42.0846 165.145 44.8846 159.145C47.2846 154.078 47.6846 150.611 47.6846 136.878C47.818 127.811 48.3513 117.811 49.1513 114.478C49.9513 111.145 50.8846 106.878 51.2846 104.878C51.9513 101.278 52.218 101.145 61.1513 101.145C66.218 101.145 70.3513 100.745 70.4846 100.078C70.4846 99.5446 70.7513 97.9446 71.018 96.4779C71.2846 95.0113 71.9513 89.1446 72.4846 83.4113C73.418 73.1446 73.418 73.0113 76.8846 73.6779C78.7513 74.0779 82.618 74.7446 85.418 75.2779C91.018 76.2113 93.018 78.8779 93.018 85.4113C93.018 87.9446 93.5513 90.4779 94.218 91.1446C94.8846 91.9446 95.6846 94.6113 95.9513 97.1446L96.3513 101.811L107.285 101.411L118.085 101.011L119.551 110.078C120.351 115.011 121.418 125.678 122.085 133.811C123.018 146.478 123.685 149.278 126.885 153.945C131.018 160.345 135.018 162.478 142.885 162.478C153.151 162.478 153.685 161.411 153.551 140.211C153.551 130.078 153.018 116.878 152.351 111.011C151.285 98.7446 151.418 98.3446 160.351 97.1446C165.685 96.4779 165.685 96.3446 165.285 91.1446C165.018 88.2113 163.285 78.3446 161.418 69.1446C159.551 59.9446 157.151 46.4779 156.218 39.1446C152.751 14.0779 150.885 4.47793 149.418 4.7446C145.951 5.41127 133.151 11.9446 128.085 15.6779C124.885 17.9446 120.751 19.8113 118.618 19.8113C116.618 19.8113 114.218 20.4779 113.285 21.4113C111.285 23.4113 79.2846 24.6113 75.2846 22.8779C73.6846 22.0779 69.418 20.2113 65.818 18.6113C59.418 15.6779 51.418 13.5446 42.3513 12.3446C39.818 11.9446 36.4846 11.1446 35.018 10.4779C33.5513 9.9446 29.018 8.34461 25.018 7.14461C21.018 5.94461 16.0846 3.81127 14.218 2.3446C10.0846 -0.588729 7.95129 -0.722067 4.75129 1.67793ZM12.3513 8.21127C13.818 9.14461 18.3513 11.0113 22.3513 12.3446C26.3513 13.6779 30.8846 15.2779 32.3513 15.8113C33.818 16.4779 37.1513 17.2779 39.6846 17.5446C47.6846 18.6113 58.618 21.9446 67.018 25.8113C74.218 29.2779 76.4846 29.5446 90.3513 29.6779C99.6846 29.6779 107.818 29.0113 111.018 27.9446C113.951 27.0113 118.351 25.9446 120.885 25.5446C123.418 25.1446 129.951 21.8113 135.418 18.3446C140.885 14.7446 145.685 11.9446 145.951 12.2113C146.351 12.7446 147.018 16.4779 149.951 36.0779C150.351 38.8779 150.218 41.1446 149.685 41.1446C148.218 41.1446 141.018 36.6113 141.018 35.8113C141.018 33.8113 133.018 26.3446 131.818 27.1446C129.551 28.4779 130.085 30.3446 133.951 36.3446C137.551 41.8113 144.351 46.4779 148.751 46.4779C150.618 46.4779 151.551 48.3446 152.885 54.0779C154.618 62.4779 159.685 89.1446 159.685 90.7446C159.685 91.4113 157.951 91.8113 155.818 91.8113C153.551 91.8113 151.551 92.3446 151.151 92.8779C150.885 93.4113 142.485 94.0779 132.751 94.3446C123.018 94.4779 112.085 95.2779 108.485 95.9446C104.885 96.6113 101.818 97.0113 101.685 96.8779C101.018 95.2779 97.018 72.7446 97.018 69.9446C97.018 65.6779 93.2846 63.8113 91.018 66.8779C90.0846 68.2113 87.5513 69.1446 84.618 69.1446C79.2846 69.1446 67.6846 64.6113 67.6846 62.4779C67.6846 60.3446 63.6846 61.0113 62.7513 63.4113C62.218 64.7446 63.018 66.4779 64.7513 67.9446C68.0846 70.6113 68.618 77.9446 66.218 89.1446L64.7513 95.8113H57.2846C53.1513 95.8113 39.818 94.6113 27.6846 93.1446C15.5513 91.6779 5.41796 90.4779 5.15129 90.4779C4.61796 90.4779 5.68462 71.5446 7.15129 53.4113L7.95129 43.8113H13.1513C17.418 43.8113 19.2846 42.8779 23.6846 38.4779C26.618 35.5446 29.018 32.2113 29.018 31.1446C29.018 27.6779 24.4846 29.0113 19.818 33.8113C16.7513 37.0113 14.3513 38.4779 11.5513 38.4779H7.68462V22.4779C7.68462 13.6779 8.08462 6.47794 8.75129 6.47794C9.28462 6.47794 10.8846 7.27794 12.3513 8.21127ZM38.7513 100.745C45.018 101.411 45.2846 101.545 44.4846 105.011C43.9513 106.878 43.2846 117.411 42.8846 128.478C42.4846 139.411 41.5513 151.011 40.618 154.211C39.2846 159.278 38.7513 159.811 35.018 159.811C32.0846 159.811 29.5513 158.478 26.4846 155.278L22.0846 150.745L23.018 124.478L24.0846 98.2113L28.218 99.1446C30.4846 99.5446 35.2846 100.345 38.7513 100.745ZM146.751 114.478C147.285 122.211 147.551 134.745 147.418 142.478L147.018 156.478L142.085 156.345C131.685 156.078 128.485 149.278 126.618 124.478C125.818 114.211 124.885 104.745 124.351 103.545C123.551 101.545 124.618 101.278 131.285 100.745C146.885 99.6779 145.551 98.6113 146.751 114.478Z" fill="black"/>
<path d="M12.3513 8.21127C13.818 9.14461 18.3513 11.0113 22.3513 12.3446C26.3513 13.6779 30.8846 15.2779 32.3513 15.8113C33.818 16.4779 37.1513 17.2779 39.6846 17.5446C47.6846 18.6113 58.618 21.9446 67.018 25.8113C74.218 29.2779 76.4846 29.5446 90.3513 29.6779C99.6846 29.6779 107.818 29.0113 111.018 27.9446C113.951 27.0113 118.351 25.9446 120.885 25.5446C123.418 25.1446 129.951 21.8113 135.418 18.3446C140.885 14.7446 145.685 11.9446 145.951 12.2113C146.351 12.7446 147.018 16.4779 149.951 36.0779C150.351 38.8779 150.218 41.1446 149.685 41.1446C148.218 41.1446 141.018 36.6113 141.018 35.8113C141.018 33.8113 133.018 26.3446 131.818 27.1446C129.551 28.4779 130.085 30.3446 133.951 36.3446C137.551 41.8113 144.351 46.4779 148.751 46.4779C150.618 46.4779 151.551 48.3446 152.885 54.0779C154.618 62.4779 159.685 89.1446 159.685 90.7446C159.685 91.4113 157.951 91.8113 155.818 91.8113C153.551 91.8113 151.551 92.3446 151.151 92.8779C150.885 93.4113 142.485 94.0779 132.751 94.3446C123.018 94.4779 112.085 95.2779 108.485 95.9446C104.885 96.6113 101.818 97.0113 101.685 96.8779C101.018 95.2779 97.018 72.7446 97.018 69.9446C97.018 65.6779 93.2846 63.8113 91.018 66.8779C90.0846 68.2113 87.5513 69.1446 84.618 69.1446C79.2846 69.1446 67.6846 64.6113 67.6846 62.4779C67.6846 60.3446 63.6846 61.0113 62.7513 63.4113C62.218 64.7446 63.018 66.4779 64.7513 67.9446C68.0846 70.6113 68.618 77.9446 66.218 89.1446L64.7513 95.8113H57.2846C53.1513 95.8113 39.818 94.6113 27.6846 93.1446C15.5513 91.6779 5.41796 90.4779 5.15129 90.4779C4.61796 90.4779 5.68462 71.5446 7.15129 53.4113L7.95129 43.8113H13.1513C17.418 43.8113 19.2846 42.8779 23.6846 38.4779C26.618 35.5446 29.018 32.2113 29.018 31.1446C29.018 27.6779 24.4846 29.0113 19.818 33.8113C16.7513 37.0113 14.3513 38.4779 11.5513 38.4779H7.68462V22.4779C7.68462 13.6779 8.08462 6.47794 8.75129 6.47794C9.28462 6.47794 10.8846 7.27794 12.3513 8.21127Z" fill="currentcolor"/>
<path d="M146.751 114.478C147.285 122.211 147.551 134.745 147.418 142.478L147.018 156.478L142.085 156.345C131.685 156.078 128.485 149.278 126.618 124.478C125.818 114.211 124.885 104.745 124.351 103.545C123.551 101.545 124.618 101.278 131.285 100.745C146.885 99.6779 145.551 98.6113 146.751 114.478Z" fill="current"/>
<path d="M38.7513 100.745C45.018 101.411 45.2846 101.545 44.4846 105.011C43.9513 106.878 43.2846 117.411 42.8846 128.478C42.4846 139.411 41.5513 151.011 40.618 154.211C39.2846 159.278 38.7513 159.811 35.018 159.811C32.0846 159.811 29.5513 158.478 26.4846 155.278L22.0846 150.745L23.018 124.478L24.0846 98.2113L28.218 99.1446C30.4846 99.5446 35.2846 100.345 38.7513 100.745Z" fill="current"/>
</svg>
