<svg width="167" height="100" viewBox="0 0 167 171" fill="none" xmlns="http://www.w3.org/2000/svg">
<path d="M3.78423 1.24377C2.31757 3.64377 0.584232 64.7104 1.38423 89.2438C1.78423 102.044 1.38423 121.244 0.717566 131.91C-0.215768 144.044 0 151 0.499965 152.5C0.499965 153.5 0.715641 155.99 1.49994 158C2.21564 162.49 4.8509 163.777 16.4509 166.977C34.3176 171.91 45.6509 170.844 53.3842 163.644C56.1842 161.11 56.4509 159.51 56.4509 148.444C56.4509 138.71 57.5176 131.91 60.9842 117.644C63.5176 107.51 66.3176 91.7771 67.2509 82.7104L68.8509 66.1771L76.9842 62.5771C81.5176 60.4438 85.5176 59.1105 86.1842 59.5105C86.7176 59.7771 87.1176 61.3771 87.1176 62.9771C87.1176 64.5771 89.7842 76.4438 92.9842 89.2438C96.1842 102.044 99.7842 117.377 101.118 123.244C106.051 145.777 110.718 157.51 115.651 160.177C117.118 160.977 125.918 161.91 135.118 162.31L149.02 162.862C150.913 162.937 152.788 162.473 154.427 161.524L159.518 158.577C168.451 153.644 167.784 157.244 165.118 121.244C163.918 104.977 161.651 87.2438 159.118 73.9105C153.918 47.7771 151.384 30.7105 150.184 16.3105C149.784 10.3105 148.984 4.71045 148.451 3.77711C147.251 1.91045 147.518 1.91045 133.118 9.77711C127.251 12.9771 118.318 17.9104 113.118 20.7104L103.784 25.7771L85.7842 25.9104C70.3176 25.9104 66.7176 25.5104 60.4509 22.9771C56.4509 21.3771 50.4509 19.3771 47.2509 18.5771C42.0509 17.2438 29.7842 11.6438 13.6509 3.11044C6.71757 -0.489557 4.98423 -0.756225 3.78423 1.24377ZM13.5176 8.44379C25.6509 14.7105 43.1176 22.5771 47.1176 23.3771C49.6509 23.7771 54.4509 25.5104 57.7842 26.9771C62.9842 29.5104 66.3176 29.7771 84.4509 29.9104C104.984 29.9104 105.118 29.9104 114.051 25.6438C119.118 23.2438 125.118 19.9104 127.384 18.0438C129.784 16.3104 134.451 13.7771 137.518 12.4438C144.718 9.64379 145.118 10.0438 146.318 23.7771C146.851 29.3771 147.651 35.2438 148.051 36.8438C149.251 41.7771 146.451 40.4438 137.384 31.9104C129.251 24.3104 125.784 22.3105 125.784 25.2438C125.784 26.5771 132.851 35.2438 137.118 38.8438C138.584 40.1771 142.051 42.3105 144.718 43.5105C147.518 44.8438 149.784 46.8438 149.784 48.0438C149.784 49.2438 151.518 59.2438 153.651 70.1771C158.851 96.4438 160.451 108.577 161.518 132.31L162.149 145.652C162.333 149.548 160.234 153.196 156.773 154.996L155.784 155.51C149.518 158.71 148.451 158.844 134.851 158.177C127.118 157.777 119.518 156.844 118.051 156.044C114.051 153.91 110.451 143.244 103.251 112.577C99.5176 97.1105 94.9842 78.5771 93.1176 71.2438C90.9842 62.9771 89.9176 56.3105 90.4509 53.6438C91.3842 48.1771 89.6509 47.2438 85.7842 51.2438C84.0509 52.9771 78.7176 56.0438 73.6509 58.0438L67.5817 60.4896C65.8262 61.197 64.6206 62.8351 64.4671 64.7215L63.7842 73.1105C62.5842 88.7104 59.6509 106.177 55.7842 120.577C53.2509 129.377 52.4509 135.91 52.4509 145.377C52.4509 159.91 50.8509 163.11 42.3176 164.71C31.9176 166.577 10.8509 162.444 6.8509 157.644C5.51757 155.91 5.2509 144.177 5.51757 99.3771C5.91757 49.1105 6.18423 43.1104 8.18423 41.9104C15.1176 37.6438 24.4509 25.6438 24.4509 20.8438C24.4509 16.9771 20.5842 18.3104 18.5842 22.8438C16.1842 28.4438 7.6509 38.1771 6.4509 36.9771C4.98423 35.6438 7.2509 6.57712 8.71757 6.57712C9.38423 6.57712 11.6509 7.37712 13.5176 8.44379Z" fill="black"/>
<path d="M13.5176 8.44379C25.6509 14.7105 43.1176 22.5771 47.1176 23.3771C49.6509 23.7771 54.4509 25.5104 57.7842 26.9771C62.9842 29.5104 66.3176 29.7771 84.4509 29.9104C104.984 29.9104 105.118 29.9104 114.051 25.6438C119.118 23.2438 125.118 19.9104 127.384 18.0438C129.784 16.3104 134.451 13.7771 137.518 12.4438C144.718 9.64379 145.118 10.0438 146.318 23.7771C146.851 29.3771 147.651 35.2438 148.051 36.8438C149.251 41.7771 146.451 40.4438 137.384 31.9104C129.251 24.3104 125.784 22.3105 125.784 25.2438C125.784 26.5771 132.851 35.2438 137.118 38.8438C138.584 40.1771 142.051 42.3105 144.718 43.5105C147.518 44.8438 149.784 46.8438 149.784 48.0438C149.784 49.2438 151.518 59.2438 153.651 70.1771C158.851 96.4438 160.451 108.577 161.518 132.31L162.149 145.652C162.333 149.548 160.234 153.196 156.773 154.996L155.784 155.51C149.518 158.71 148.451 158.844 134.851 158.177C127.118 157.777 119.518 156.844 118.051 156.044C114.051 153.91 110.451 143.244 103.251 112.577C99.5176 97.1105 94.9842 78.5771 93.1176 71.2438C90.9842 62.9771 89.9176 56.3105 90.4509 53.6438C91.3842 48.1771 89.6509 47.2438 85.7842 51.2438C84.0509 52.9771 78.7176 56.0438 73.6509 58.0438L67.5817 60.4896C65.8262 61.197 64.6206 62.8351 64.4671 64.7215L63.7842 73.1105C62.5842 88.7104 59.6509 106.177 55.7842 120.577C53.2509 129.377 52.4509 135.91 52.4509 145.377C52.4509 159.91 50.8509 163.11 42.3176 164.71C31.9176 166.577 10.8509 162.444 6.8509 157.644C5.51757 155.91 5.2509 144.177 5.51757 99.3771C5.91757 49.1105 6.18423 43.1104 8.18423 41.9104C15.1176 37.6438 24.4509 25.6438 24.4509 20.8438C24.4509 16.9771 20.5842 18.3104 18.5842 22.8438C16.1842 28.4438 7.6509 38.1771 6.4509 36.9771C4.98423 35.6438 7.2509 6.57712 8.71757 6.57712C9.38423 6.57712 11.6509 7.37712 13.5176 8.44379Z" fill="currentcolor"/>
</svg>
