<svg width="268" height="125" viewBox="0 0 268 256" fill="none" xmlns="http://www.w3.org/2000/svg">
<path d="M138.704 0.76886C110.571 4.76886 90.5712 11.0355 71.3712 21.9689C55.7712 30.7689 52.0378 34.1022 41.1045 48.2355C26.9711 66.7689 24.0378 71.3022 20.3045 79.4355C18.5712 83.4355 15.2378 90.6355 12.9712 95.4355C8.30449 105.036 8.43782 102.769 9.50449 146.902C10.0378 169.836 9.77115 172.502 7.63782 174.636C1.50449 180.769 -1.29551 193.836 0.571152 206.636C1.63782 213.569 8.03782 222.102 12.0378 222.102C13.5045 222.102 16.5712 223.302 18.9712 224.636C21.3712 225.969 26.7045 227.836 30.7045 228.769C45.3712 231.836 50.7045 235.969 50.7045 244.236C50.7045 247.436 53.2378 250.502 57.7712 253.036C62.0378 255.302 95.1045 255.836 100.438 253.702C102.971 252.636 106.038 252.369 108.038 252.902C113.504 254.502 123.371 254.236 125.104 252.502C126.304 251.302 126.704 251.302 126.704 252.502C126.704 254.502 142.171 254.769 147.105 252.902C148.971 252.102 151.771 249.169 153.505 246.236C155.904 241.836 157.238 240.769 160.438 240.769C162.571 240.769 171.238 237.302 179.771 233.036C188.438 228.769 198.304 224.502 201.904 223.569C215.505 220.236 222.571 214.236 232.704 197.702C236.171 191.836 243.105 181.969 248.171 175.702C266.038 153.436 266.838 151.702 267.638 139.169C268.571 125.436 265.905 84.1022 263.371 74.2355C261.771 67.1689 256.438 55.8355 252.838 51.4355C251.905 50.3689 249.505 46.6355 247.638 43.1689C244.171 37.1689 229.238 23.8355 220.704 19.0355C218.571 17.8355 207.105 13.1689 195.371 8.63553C175.105 0.902191 173.371 0.502182 160.704 0.102188C153.371 -0.164474 143.505 0.102188 138.704 0.76886ZM184.038 10.2355C191.771 13.1689 202.038 17.0355 206.971 18.6355C218.438 22.3689 237.105 35.7022 242.171 43.7022C244.171 46.9022 246.971 51.0355 248.305 53.1689C252.704 59.5688 258.704 71.0355 258.704 73.0355C258.704 75.0355 248.305 78.1022 241.371 78.1022C236.838 78.1022 235.771 76.6355 235.371 70.6355C235.105 65.8355 232.705 62.1022 229.905 62.1022C227.771 62.1022 227.371 65.5689 229.371 66.7689C230.971 67.7022 231.104 73.7022 229.638 74.6355C227.638 75.8355 222.704 73.8355 222.704 71.9689C222.704 70.9022 223.371 70.1022 224.171 70.1022C226.305 70.1022 224.438 63.3022 221.238 60.1022C219.238 57.9689 216.838 57.5689 208.038 57.4355C194.705 57.4355 193.904 59.8355 206.838 61.0355C212.838 61.5689 217.105 62.6355 218.438 63.9689C220.438 65.9689 220.438 66.5022 218.171 70.6355C214.705 77.3022 215.238 77.7022 230.305 80.2355C234.171 81.0355 234.571 81.5689 235.638 87.9689C236.971 96.5022 239.238 96.7689 239.771 88.6355L240.171 82.3689L247.105 81.7022C250.971 81.3022 255.238 80.6355 256.704 80.1022C259.238 79.3022 259.504 80.2355 261.104 89.7022C261.904 95.4355 262.704 110.902 262.704 124.102V140.407C262.704 145.421 261.197 150.319 258.378 154.465L255.905 158.102C252.171 163.436 248.438 168.636 247.505 169.436C245.105 171.436 232.038 189.569 232.038 190.902C231.905 193.169 222.038 205.569 216.704 210.369C208.571 217.569 201.104 219.436 180.838 219.436C166.304 219.436 162.838 219.836 160.438 221.836C156.704 224.769 152.038 232.769 152.038 236.102C152.038 237.569 150.705 241.302 149.105 244.369L146.603 249.046C146.255 249.696 145.577 250.102 144.839 250.102H137.371H130.788C129.652 250.102 128.743 249.156 128.79 248.02L129.104 240.369C129.504 232.636 129.238 230.236 127.504 228.902C124.971 226.769 124.971 227.036 125.371 236.769C125.638 247.436 122.838 250.769 114.304 249.569L109.795 248.883C108.851 248.739 108.14 247.948 108.098 246.995L107.771 239.702C107.504 232.769 106.971 230.769 105.371 230.769C103.904 230.769 103.238 232.769 102.971 238.769C102.571 248.369 100.838 250.102 91.6378 250.102C83.9045 250.102 81.3712 247.969 81.3712 241.569C81.3712 236.502 79.1045 233.969 77.2378 236.902C76.5712 237.969 76.0378 241.302 76.0378 244.369V250.102H70.0378C62.1712 250.102 56.0378 247.036 56.0378 243.036C56.0378 235.702 43.9045 224.769 35.7712 224.769C31.6378 224.769 22.9712 221.569 13.1045 216.636C8.8778 213.029 6.2676 207.883 5.85451 202.342L5.63782 199.436C6.03782 187.036 6.43782 185.969 10.5712 180.102L14.5765 174.519C14.8325 174.162 14.9639 173.731 14.9505 173.292L14.1712 147.702C13.7712 133.302 13.1045 118.369 12.7045 114.769C12.7045 109 12.9712 107.5 16.4378 99.4355C20.8378 90.9022 20.9712 90.7689 27.2378 90.1022C34.5712 89.3022 35.5045 86.9022 28.7045 86.3689C23.1045 85.8355 22.7045 83.7022 27.2378 75.9689C30.1712 70.7689 33.1045 66.6355 47.1045 48.3689C58.8378 33.0355 65.6378 28.6355 72.9712 32.1022C78.0378 34.5022 78.3045 35.8355 74.7045 39.4355C72.0378 42.1022 71.1045 46.1022 73.2378 46.1022C73.7712 46.1022 75.9045 44.9022 77.6378 43.4355C80.4378 41.3022 81.7711 41.0355 86.0378 42.2355C89.3712 43.1689 91.5045 43.1689 92.3045 42.3689C94.1712 40.5022 92.4378 38.1022 89.3712 38.1022C85.2378 38.1022 82.7045 36.6355 82.7045 34.2355C82.7045 32.9022 80.5712 30.9022 77.9045 29.5689C74.9712 28.2355 73.5045 26.7689 74.1712 26.1022C78.8378 21.5688 106.971 10.7689 119.771 8.63553C124.704 7.70219 131.104 6.63553 134.038 6.10219C136.971 5.56885 146.305 5.03552 154.704 4.90219C169.638 4.76886 170.438 4.90219 184.038 10.2355ZM185.904 223.169C186.304 223.702 184.305 225.302 181.638 226.636C178.971 227.969 173.904 230.502 170.571 232.236C164.971 235.169 157.371 236.502 157.371 234.769C157.371 233.302 162.038 226.769 164.038 225.436C165.104 224.636 169.638 223.702 174.038 223.302C178.438 222.902 182.704 222.502 183.638 222.369C184.438 222.236 185.505 222.636 185.904 223.169Z" fill="black"/>
<path d="M184.038 10.2355C191.771 13.1689 202.038 17.0355 206.971 18.6355C218.438 22.3689 237.105 35.7022 242.171 43.7022C244.171 46.9022 246.971 51.0355 248.305 53.1689C252.704 59.5688 258.704 71.0355 258.704 73.0355C258.704 75.0355 248.305 78.1022 241.371 78.1022C236.838 78.1022 235.771 76.6355 235.371 70.6355C235.105 65.8355 232.705 62.1022 229.905 62.1022C227.771 62.1022 227.371 65.5689 229.371 66.7689C230.971 67.7022 231.104 73.7022 229.638 74.6355C227.638 75.8355 222.704 73.8355 222.704 71.9689C222.704 70.9022 223.371 70.1022 224.171 70.1022C226.305 70.1022 224.438 63.3022 221.238 60.1022C219.238 57.9689 216.838 57.5689 208.038 57.4355C194.705 57.4355 193.904 59.8355 206.838 61.0355C212.838 61.5689 217.105 62.6355 218.438 63.9689C220.438 65.9689 220.438 66.5022 218.171 70.6355C214.705 77.3022 215.238 77.7022 230.305 80.2355C234.171 81.0355 234.571 81.5689 235.638 87.9689C236.971 96.5022 239.238 96.7689 239.771 88.6355L240.171 82.3689L247.105 81.7022C250.971 81.3022 255.238 80.6355 256.704 80.1022C259.238 79.3022 259.504 80.2355 261.104 89.7022C261.904 95.4355 262.704 110.902 262.704 124.102V140.407C262.704 145.421 261.197 150.319 258.378 154.465L255.905 158.102C252.171 163.436 248.438 168.636 247.505 169.436C245.105 171.436 232.038 189.569 232.038 190.902C231.905 193.169 222.038 205.569 216.704 210.369C208.571 217.569 201.104 219.436 180.838 219.436C166.304 219.436 162.838 219.836 160.438 221.836C156.704 224.769 152.038 232.769 152.038 236.102C152.038 237.569 150.705 241.302 149.105 244.369L146.603 249.046C146.255 249.696 145.577 250.102 144.839 250.102H137.371H130.788C129.652 250.102 128.743 249.156 128.79 248.02L129.104 240.369C129.504 232.636 129.238 230.236 127.504 228.902C124.971 226.769 124.971 227.036 125.371 236.769C125.638 247.436 122.838 250.769 114.304 249.569L109.795 248.883C108.851 248.739 108.14 247.948 108.098 246.995L107.771 239.702C107.504 232.769 106.971 230.769 105.371 230.769C103.904 230.769 103.238 232.769 102.971 238.769C102.571 248.369 100.838 250.102 91.6378 250.102C83.9045 250.102 81.3712 247.969 81.3712 241.569C81.3712 236.502 79.1045 233.969 77.2378 236.902C76.5712 237.969 76.0378 241.302 76.0378 244.369V250.102H70.0378C62.1712 250.102 56.0378 247.036 56.0378 243.036C56.0378 235.702 43.9045 224.769 35.7712 224.769C31.6378 224.769 22.9712 221.569 13.1045 216.636C8.8778 213.029 6.2676 207.883 5.85451 202.342L5.63782 199.436C6.03782 187.036 6.43782 185.969 10.5712 180.102L14.5765 174.519C14.8325 174.162 14.9639 173.731 14.9505 173.292L14.1712 147.702C13.7712 133.302 13.1045 118.369 12.7045 114.769C12.7045 109 12.9712 107.5 16.4378 99.4355C20.8378 90.9022 20.9712 90.7689 27.2378 90.1022C34.5712 89.3022 35.5045 86.9022 28.7045 86.3689C23.1045 85.8355 22.7045 83.7022 27.2378 75.9689C30.1712 70.7689 33.1045 66.6355 47.1045 48.3689C58.8378 33.0355 65.6378 28.6355 72.9712 32.1022C78.0378 34.5022 78.3045 35.8355 74.7045 39.4355C72.0378 42.1022 71.1045 46.1022 73.2378 46.1022C73.7712 46.1022 75.9045 44.9022 77.6378 43.4355C80.4378 41.3022 81.7711 41.0355 86.0378 42.2355C89.3712 43.1689 91.5045 43.1689 92.3045 42.3689C94.1712 40.5022 92.4378 38.1022 89.3712 38.1022C85.2378 38.1022 82.7045 36.6355 82.7045 34.2355C82.7045 32.9022 80.5712 30.9022 77.9045 29.5689C74.9712 28.2355 73.5045 26.7689 74.1712 26.1022C78.8378 21.5688 106.971 10.7689 119.771 8.63553C124.704 7.70219 131.104 6.63553 134.038 6.10219C136.971 5.56885 146.305 5.03552 154.704 4.90219C169.638 4.76886 170.438 4.90219 184.038 10.2355Z" fill="currentcolor"/>
<path d="M185.904 223.169C186.304 223.702 184.305 225.302 181.638 226.636C178.971 227.969 173.904 230.502 170.571 232.236C164.971 235.169 157.371 236.502 157.371 234.769C157.371 233.302 162.038 226.769 164.038 225.436C165.104 224.636 169.638 223.702 174.038 223.302C178.438 222.902 182.704 222.502 183.638 222.369C184.438 222.236 185.505 222.636 185.904 223.169Z" fill="currentcolor"/>
<path d="M176.705 87.3022C175.638 89.3022 177.505 89.9689 186.971 90.9022C193.238 91.5689 195.905 91.3022 196.705 90.1022C197.238 89.1689 196.971 87.9689 195.905 87.3022C193.371 85.7022 177.771 85.8356 176.705 87.3022Z" fill="black"/>
<path d="M85.1045 203.036C83.3712 205.169 80.4378 208.769 78.8378 211.169C76.1712 215.036 76.0378 215.569 78.0378 216.236C79.2378 216.769 80.8378 216.502 81.7712 215.569C82.5712 214.769 85.5045 214.102 88.3045 214.102C92.5712 214.102 93.6378 214.769 95.3712 218.102C97.3712 221.969 100.438 223.302 101.905 221.036C102.705 219.702 93.7712 201.836 91.6378 200.502C89.2378 198.902 88.8378 199.169 85.1045 203.036Z" fill="black"/>
<path d="M122.972 114.286C117.772 116.952 114.972 123.352 112.972 136.152C110.705 150.552 110.572 162.019 112.438 175.352C114.038 186.819 115.638 190.419 121.505 196.019C125.638 199.886 126.038 200.019 138.572 199.886C167.772 199.619 176.172 186.952 176.172 142.819C176.172 127.086 175.905 125.086 173.238 121.086C171.505 118.686 168.438 116.019 166.172 115.219C159.905 112.819 126.838 112.152 122.972 114.286Z" fill="black"/>
<path d="M44.1718 118.152C32.7051 121.619 32.3051 123.219 27.3718 177.619C26.7051 185.219 26.8384 187.886 28.5718 190.419C35.7718 201.352 62.9718 200.552 70.4384 189.086C73.3718 184.686 79.7718 160.686 81.7718 146.952C82.8384 138.819 82.8384 134.819 81.5051 129.219C78.9718 118.552 76.9718 117.352 61.6384 117.086C54.5718 116.952 46.7051 117.486 44.1718 118.152Z" fill="black"/>
</svg>
