<svg width="265" height="125" viewBox="0 0 265 256" fill="none" xmlns="http://www.w3.org/2000/svg">
<path d="M128.647 0.781952C128.413 1.17293 126.77 1.5639 125.05 1.5639C120.749 1.5639 119.342 2.50227 115.979 7.66324L113.008 12.1204L112.773 22.3642L112.46 32.6079L106.909 33.0771C95.8828 34.0154 93.6151 34.5628 89.7835 37.2997C87.7504 38.7072 85.5609 39.8802 84.9353 39.8802C84.3097 39.8802 83.606 40.193 83.2932 40.5839C83.0586 41.0531 77.6631 41.1313 69.9998 40.8967C61.2418 40.5839 56.4718 40.6621 55.2989 41.2877C54.3605 41.7569 51.8582 42.6952 49.8251 43.399C47.792 44.0246 44.2732 45.9013 42.0055 47.5434C39.7378 49.2637 37.0791 51.0623 35.9843 51.6096C33.0911 53.0954 20.3451 66.858 20.3451 68.4219C20.3451 68.8129 19.7977 69.7512 19.0157 70.5332C17.6082 72.0971 16.2006 74.443 14.9495 77.1799C14.4803 78.1964 13.7766 78.9784 13.3856 78.9784C12.9946 78.9784 12.1344 80.8551 11.3525 83.0446C10.6487 85.3123 9.55394 87.7364 9.00657 88.362C7.99001 89.6131 7.28625 93.2102 6.58248 101.264C6.34789 103.845 5.64412 106.504 5.09675 107.129C4.47117 107.755 3.8456 111.117 3.61101 114.714C3.37642 118.311 2.90724 124.098 2.67266 127.617C2.43807 131.135 1.7343 134.732 1.10873 135.749C0.170369 137.157 -0.0642206 140.675 0.0139758 153.734C0.0139758 162.727 0.404958 172.736 0.874137 175.942C1.26512 179.148 1.89069 183.918 2.04708 186.499C2.35987 189.235 3.06364 191.816 3.76741 192.676C4.54937 193.458 5.17494 195.178 5.25314 196.586C5.80051 204.015 6.81707 209.488 8.06821 211.365C8.77198 212.46 9.39755 214.336 9.39755 215.431C9.39755 217.855 10.2577 219.419 15.1059 225.753C17.139 228.412 18.7811 231.305 18.7811 232.165C18.7811 233.025 19.3285 234.198 19.9541 234.746C20.6578 235.293 21.5962 236.231 22.1436 236.779C26.8354 241.94 30.1978 244.677 32.4655 245.068C33.9512 245.38 35.7498 246.397 36.5317 247.335C38.1738 249.212 40.9107 251.011 42.3183 251.011C42.8656 251.011 43.6476 251.558 44.195 252.262C45.6807 254.373 51.7018 254.842 79.7744 254.999C103.624 255.155 106.518 254.999 107.769 253.904C108.551 253.122 109.802 252.575 110.506 252.575C111.209 252.575 111.991 252.184 112.226 251.714C112.539 251.245 113.712 251.011 114.806 251.089C117.23 251.323 120.437 250.385 120.437 249.447C120.437 248.821 122.704 248.117 128.647 247.101C130.837 246.71 133.574 246.162 134.746 245.85C137.327 245.224 142.488 246.71 145.616 248.899C146.867 249.838 148.353 250.229 149.526 249.994C150.542 249.759 152.497 250.15 154.061 251.011C155.547 251.793 157.658 252.887 158.675 253.356C161.02 254.373 210.675 253.982 216.149 252.809C218.26 252.34 220.293 251.402 220.684 250.698C221.075 249.994 222.014 249.447 222.874 249.447C223.656 249.447 225.767 248.196 227.644 246.632C229.442 245.146 231.945 243.66 233.196 243.426C234.447 243.191 236.011 242.174 236.793 241.236C237.575 240.298 238.904 239.125 239.921 238.577C240.859 238.108 241.641 237.17 241.641 236.622C241.641 235.997 242.501 234.98 243.596 234.277C244.691 233.573 245.785 232.009 246.02 230.836C246.333 229.663 247.584 227.473 248.757 225.91C250.008 224.346 251.025 222.625 251.025 222.234C251.025 221.765 251.494 221.061 252.119 220.749C253.605 219.888 255.716 215.509 255.716 213.32C255.716 212.303 256.186 210.739 256.811 209.879C257.437 209.019 258.062 206.282 258.297 203.702C259.157 195.178 259.783 191.972 261.112 191.112C262.832 189.783 264.396 174.534 264.787 153.5C265.1 138.955 265.022 136.531 263.849 134.341C263.067 132.934 262.441 129.65 262.363 127.069C261.972 116.2 260.799 107.286 259.548 105.878C258.688 104.861 258.14 102.125 257.749 96.9636C257.437 91.7244 256.889 88.9876 255.873 87.58C255.091 86.4853 253.996 84.0612 253.37 82.1063C252.119 78.3528 245.394 67.4053 242.345 64.1211C241.328 63.0263 239.764 61.0714 238.904 59.6639C237.184 56.927 231.397 51.6096 228.348 50.0457C227.253 49.4983 224.594 47.6998 222.405 46.0577C215.993 41.3659 210.753 39.8802 199.571 39.5674C191.204 39.3328 189.64 39.0982 187.685 37.6125C186.356 36.6741 184.245 35.9704 182.681 35.9704C181.195 35.9704 179.709 35.5794 179.475 35.1884C179.24 34.7192 177.676 34.4064 176.034 34.4064C174.314 34.4064 172.594 33.9372 172.046 33.2335C170.795 31.7477 151.011 31.5132 149.526 32.9989C148.978 33.5463 148.587 33.7027 148.587 33.4681C148.587 33.0771 154.765 20.8784 156.876 17.2032C158.284 14.6227 158.284 7.89782 156.72 4.76996C154.687 0.703743 152.341 -1.52588e-05 140.064 -1.52588e-05C133.652 -1.52588e-05 128.96 0.312773 128.647 0.781952ZM151.011 8.83618C152.262 11.3385 152.262 11.6513 150.308 15.7175C149.291 18.0634 147.101 21.895 145.538 24.2409C142.801 28.4635 142.722 28.6981 142.41 37.9253C142.253 44.2592 141.784 47.778 141.08 48.8728C139.751 50.7495 139.595 61.1496 140.846 63.4955C141.706 65.0594 141.628 65.1376 137.953 64.5903C134.668 64.1993 133.652 63.5737 130.758 60.3676C128.96 58.3345 127.083 55.5195 126.614 54.0337C126.067 52.548 125.05 50.6713 124.346 49.8893C123.643 49.1074 122.079 46.6051 120.906 44.3374C118.951 40.4275 118.873 39.7238 118.873 27.2905V14.3881L121.297 11.1039C123.486 8.13242 124.034 7.81963 127.083 7.81963C128.96 7.81963 130.758 7.42864 130.993 7.03766C131.306 6.56848 135.372 6.25569 140.611 6.25569H149.76L151.011 8.83618ZM168.136 38.8636C168.136 39.2546 169.544 40.3494 171.264 41.4441C174.47 43.3208 174.861 44.4156 172.75 45.3539C172.124 45.6667 170.873 46.2923 169.935 46.7615C168.918 47.3088 167.511 47.6998 166.729 47.6998C165.869 47.6998 164.618 48.4036 163.914 49.1855C163.132 49.9675 161.02 51.0623 159.066 51.5314C157.189 52.0006 155.625 52.7826 155.625 53.1736C155.625 54.3465 152.419 56.145 149.213 56.6924C146.32 57.2398 146.241 57.1616 146.241 55.0503C146.241 53.7991 146.789 52.0788 147.414 51.2969C148.118 50.3585 148.587 48.0126 148.587 45.5885C148.587 42.6171 148.9 41.4441 149.604 41.4441C150.229 41.4441 151.324 40.7403 152.106 39.8802C153.357 38.5508 154.53 38.3163 160.864 38.3163C164.852 38.3163 168.136 38.5508 168.136 38.8636ZM112.617 40.4276C112.695 41.2095 114.728 45.9013 117.309 50.8277C121.453 58.9601 122.157 61.697 119.42 59.6639C118.873 59.2729 116.918 58.4909 114.963 57.8654C113.008 57.318 110.584 55.9886 109.411 54.9721C108.316 53.9555 106.909 53.1736 106.205 53.1736C105.579 53.1736 103.702 52.3134 102.139 51.2187C100.575 50.1239 98.4633 49.2637 97.5249 49.2637C96.0392 49.1856 95.961 49.1074 97.134 48.4818C97.8377 48.0126 98.8543 46.4487 99.3235 44.963C99.7926 43.4772 100.887 42.0697 101.748 41.8351C102.53 41.5223 103.233 41.0531 103.233 40.6621C103.233 39.8802 105.579 39.3328 109.724 39.1764C111.991 39.0982 112.617 39.411 112.617 40.4276ZM206.844 46.1359C207.078 46.5269 208.173 46.9179 209.189 46.9179C210.206 46.9179 211.301 47.2307 211.535 47.6998C211.77 48.0908 212.708 48.4818 213.647 48.4818C214.507 48.4818 217.635 50.2021 220.528 52.3916C223.421 54.5029 226.236 56.3014 226.705 56.3014C227.175 56.3014 227.566 56.6924 227.566 57.0834C227.566 57.5526 228.817 58.6473 230.303 59.5857C232.414 60.7586 233.352 62.0098 233.978 64.5903C234.525 66.5452 235.463 68.1873 236.245 68.4219C237.575 68.8911 243.987 77.5709 243.987 78.9784C243.987 79.3694 244.847 81.0115 245.942 82.5754C247.037 84.1394 247.897 86.3289 247.897 87.4236C247.897 88.5184 248.6 90.1605 249.461 91.0989C250.555 92.2718 251.103 94.3049 251.494 99.3095C251.807 103.376 252.51 106.738 253.292 107.911C254.465 109.788 254.856 112.134 256.264 128.32C256.655 131.996 257.359 135.593 257.906 136.296C258.688 137.157 258.844 140.91 258.531 152.248C258.062 173.205 256.811 185.326 254.856 187.124C253.761 188.141 253.37 189.548 253.37 192.363C253.37 194.475 253.058 196.429 252.589 196.664C252.198 196.899 251.807 199.245 251.807 201.747C251.807 204.249 251.259 207.299 250.634 208.55C250.008 209.723 249.304 211.678 249.07 212.851C248.835 214.024 247.975 215.588 247.193 216.37C246.411 217.152 245.473 218.559 245.238 219.497C244.691 221.218 241.797 225.284 238.044 229.585C232.414 235.997 230.381 237.717 227.487 238.499C225.845 238.968 223.499 240.219 222.405 241.236C221.232 242.331 219.902 243.191 219.433 243.191C218.964 243.191 217.635 243.817 216.618 244.52C212.787 247.257 209.346 247.883 198.086 247.883C191.908 247.883 186.903 247.726 186.903 247.57C186.903 246.319 188.858 242.565 190.735 240.141C191.986 238.577 193.237 236.153 193.55 234.746C193.863 233.338 195.271 230.992 196.756 229.585C198.633 227.786 199.415 226.301 199.415 224.58C199.415 223.251 199.962 221.609 200.666 220.905C201.37 220.201 202.386 218.481 202.856 217.152C203.403 215.744 204.732 212.851 205.905 210.583C208.329 205.813 209.893 201.434 211.066 195.648C212.787 187.124 211.77 182.98 208.095 184.153C206.374 184.7 206.296 184.856 204.889 193.145C204.029 198.384 203.403 200.105 200.901 205.031C200.119 206.595 199.415 208.394 199.415 209.019C199.415 209.645 198.868 210.583 198.242 211.13C197.616 211.678 197.069 212.616 197.069 213.242C197.069 213.789 196.365 215.275 195.427 216.526C194.567 217.699 193.628 220.201 193.394 221.922C193.159 223.72 192.534 225.206 192.064 225.206C190.813 225.206 187.685 229.428 187.685 231.071C187.685 233.416 181.977 242.644 179.475 244.286C177.285 245.693 170.091 245.928 163.836 244.677C161.724 244.286 157.736 243.817 154.999 243.738C151.246 243.504 149.838 243.113 149.056 241.94C148.118 240.61 148.353 239.985 151.402 235.919C153.279 233.495 154.843 230.758 154.843 229.819C154.843 228.881 155.312 227.082 155.938 225.753C156.563 224.346 157.189 221.452 157.423 219.185L157.736 215.197L154.921 214.806C151.715 214.415 150.933 215.197 150.933 218.637C150.933 220.045 150.386 222.156 149.76 223.329C149.135 224.58 148.587 226.222 148.587 227.004C148.587 228.881 144.599 234.198 141.08 237.013C138.813 238.812 137.405 239.281 134.59 239.281C132.557 239.281 130.524 239.672 130.055 240.141C127.709 242.487 118.873 233.104 118.873 228.255C118.873 227.082 118.56 225.91 118.169 225.675C117.856 225.44 117.309 223.72 116.996 221.922C116.683 220.123 116.058 218.168 115.588 217.621C114.259 216.057 111.209 216.37 110.662 218.168C110.036 220.123 110.975 228.177 111.913 228.803C112.304 228.959 112.93 230.68 113.477 232.4C113.946 234.198 115.354 236.935 116.605 238.421C119.107 241.471 119.42 242.409 117.778 242.409C117.23 242.409 116.292 242.956 115.745 243.582C115.197 244.208 113.946 244.755 113.008 244.755C111.991 244.755 109.411 245.693 107.143 246.866C103.39 248.821 102.842 248.899 99.6363 248.039C97.7595 247.492 95.57 247.101 94.7881 247.101C92.364 247.101 83.1368 242.018 78.9924 238.421C74.457 234.511 70.7818 229.585 71.4855 228.412C71.7983 227.943 71.4855 226.613 70.86 225.362C70.2344 224.189 69.5306 221.922 69.2178 220.358C68.905 218.715 68.2013 217.073 67.5757 216.526C66.9501 216.057 66.481 215.04 66.481 214.336C66.481 213.633 66.0118 212.147 65.3862 211.052C64.8388 209.957 63.9005 205.578 63.4313 201.356C62.0238 190.799 58.9741 185.169 55.9244 187.671C54.5951 188.766 54.3605 193.302 55.5335 195.413C55.9244 196.195 56.6282 200.105 57.1756 204.171C57.6448 208.237 58.6613 212.929 59.4433 214.649C63.1185 222.782 63.5877 224.111 63.6659 227.082C63.8223 231.305 66.3246 235.059 74.3788 243.035L80.8691 249.525L67.6539 249.212C53.2658 248.899 50.2161 248.43 48.6522 246.162C48.1048 245.38 46.9318 244.755 46.0717 244.755C45.2897 244.755 43.8822 244.051 43.1002 243.269C41.2235 241.392 37.2355 239.281 35.5934 239.281C34.9678 239.281 33.6384 238.421 32.7001 237.326C31.7617 236.231 30.5106 235.371 29.9632 235.371C29.4158 235.371 28.9467 234.902 28.9467 234.355C28.9467 233.807 27.9301 232.322 26.6008 231.071C25.3496 229.819 24.2549 228.412 24.2549 228.021C24.1767 227.552 23.1601 225.91 21.909 224.424C20.5796 222.938 19.5631 221.374 19.5631 220.827C19.5631 220.358 18.8593 219.341 18.0774 218.637C17.2172 217.855 16.2788 216.135 15.9661 214.727C15.7315 213.398 14.7931 211.052 14.0111 209.566C12.6818 206.986 11.7434 200.417 11.7434 193.614C11.7434 191.659 11.1961 189.861 10.2577 188.923C8.69378 187.124 7.99001 183.683 7.36444 174.378C7.12985 171.172 6.58248 168.201 6.1915 167.731C5.80051 167.34 5.48773 160.928 5.48773 153.5C5.48773 141.848 5.72232 139.581 6.89526 137.86C8.2246 135.827 9.08476 128.946 9.78853 116.278C9.94493 112.837 10.4923 110.492 11.2743 109.553C12.1344 108.615 12.5254 106.738 12.5254 103.767C12.5254 101.343 12.9164 99.1531 13.3074 98.9185C13.7766 98.6839 14.0893 97.3546 14.0893 96.0252C14.0893 94.6177 14.6367 93.2102 15.4187 92.6628C16.2006 92.1154 16.8262 90.8643 16.8262 89.8477C16.9826 86.9544 17.9992 84.4522 19.6413 82.81C20.4232 82.0281 21.127 80.6987 21.127 79.8386C21.127 79.0566 21.6744 77.9618 22.3 77.4145C22.9255 76.8671 23.4729 75.9287 23.4729 75.3814C23.4729 74.7558 23.8639 74.2866 24.2549 74.2866C24.7241 74.2866 25.4278 73.5047 25.897 72.4881C26.3662 71.4715 27.4609 70.3768 28.3993 69.9858C29.5722 69.4384 30.1978 68.3437 30.3542 66.7016C30.5888 64.6685 31.5271 63.4173 34.8114 60.8368C42.3183 54.8157 49.1995 50.0457 50.2161 50.0457C51.5454 50.0457 56.941 48.169 57.5666 47.4652C57.8793 47.1524 61.32 46.9179 65.2298 46.9179C71.4855 46.9179 72.5021 47.0742 73.3622 48.4818C74.066 49.5765 75.1608 50.0457 77.3503 50.0457C81.1819 50.0457 82.1984 51.2969 78.9142 52.0006C72.8931 53.33 62.9621 66.3106 59.4433 77.5709C58.9741 79.213 58.1921 80.6987 57.8012 80.9333C57.4102 81.2461 57.0974 82.9664 57.0974 84.8431C57.0974 86.7199 56.7846 88.4402 56.3936 88.6748C56.0808 88.9093 55.5335 90.7079 55.2989 92.6628C54.9861 94.6177 54.2041 97.0418 53.5003 98.1365C52.6402 99.4659 52.2492 102.046 52.171 106.816C52.0146 112.446 52.2492 113.698 53.4221 114.48C55.8462 116.044 57.4102 114.167 58.0357 108.928C58.6613 103.376 60.7726 96.5726 62.2584 95.3215C62.9621 94.6959 63.3531 92.741 63.3531 89.4567C63.3531 86.798 63.6659 84.374 64.0569 84.1394C64.3697 83.9048 64.917 82.6536 65.1516 81.4025C65.5426 79.6822 66.0118 79.213 67.1065 79.5258C69.0614 79.995 70.078 78.5092 70.6254 74.2866C71.1727 70.2204 73.3622 65.6068 76.0209 62.9481C77.0375 62.0098 78.3668 60.3676 78.9924 59.4293C80.0871 57.9436 81.1037 57.6308 88.7669 57.1616C96.5084 56.6924 97.6813 56.7706 100.496 58.2563C102.217 59.1165 103.859 60.1331 104.093 60.4458C104.875 61.5406 108.785 63.3391 110.349 63.3391C111.131 63.3391 111.991 63.6519 112.226 64.1211C112.46 64.5121 113.321 64.903 114.103 64.903C114.806 64.903 116.058 65.3722 116.839 65.9196C118.091 66.858 117.934 67.2489 114.494 70.6114C112.46 72.6445 110.036 75.7723 109.098 77.6491C108.16 79.4476 106.752 82.1845 105.97 83.6702C102.06 90.8643 101.278 98.1365 104.015 100.873C105.266 102.125 105.97 102.281 107.143 101.655C108.394 101.03 108.707 100.013 108.707 96.9636C108.707 92.8974 111.835 84.4522 113.321 84.4522C113.79 84.4522 114.181 83.9048 114.181 83.201C114.181 81.3243 116.996 77.4927 121.531 73.2701L125.519 69.5166L130.211 69.9858C132.792 70.1422 137.64 70.6114 140.924 70.846C147.649 71.3934 147.571 71.3152 151.871 79.7604C153.514 82.9664 154.061 85.2341 154.061 88.5184C154.061 90.9425 154.452 93.2102 154.843 93.4447C155.312 93.6793 155.625 95.3215 155.625 97.0418C155.625 102.359 158.284 104.94 160.942 102.281C162.115 101.108 162.193 91.0207 161.099 90.3169C160.708 90.0823 160.317 88.362 160.317 86.5635C160.317 82.1063 158.987 77.4927 156.876 74.6776C153.826 70.6896 152.575 67.6399 153.357 66.3888C153.67 65.7632 153.826 64.7467 153.67 64.1211C153.435 63.3391 154.687 62.3226 157.814 60.915C161.568 59.1165 163.836 58.7255 172.437 58.3345L182.681 57.7872L185.574 60.6804C187.138 62.3226 188.467 63.8083 188.467 64.1211C188.467 64.4339 189.328 65.6068 190.422 66.7798C191.517 67.9527 192.377 69.673 192.377 70.6896C192.377 71.7061 192.846 72.9573 193.472 73.4265C194.098 73.8956 194.723 75.3032 194.958 76.4761C195.192 77.6491 195.74 79.995 196.209 81.7153C196.678 83.4356 197.304 88.5184 197.538 93.0538C198.086 101.577 198.633 103.219 201.057 103.219C203.794 103.219 204.341 100.561 203.716 88.6748C203.247 79.3694 202.934 77.1017 201.683 75.5378C200.901 74.5212 200.197 73.1919 200.197 72.5663C200.197 70.7678 196.287 63.1045 193.941 60.4458C192.768 59.1165 191.673 57.709 191.517 57.318C191.361 57.0052 189.875 55.5195 188.233 54.1119C185.731 52.0006 184.636 51.6096 181.352 51.6096C179.162 51.6096 177.598 51.2969 177.833 50.9059C178.302 50.2021 181.117 49.5765 187.529 48.7946C189.64 48.4818 191.126 47.778 191.673 46.8397C192.299 45.5885 193.394 45.3539 199.415 45.3539C203.247 45.3539 206.609 45.6667 206.844 46.1359Z" fill="black"/>
<path d="M206.844 46.1359C207.078 46.5269 208.173 46.9179 209.189 46.9179C210.206 46.9179 211.301 47.2307 211.535 47.6998C211.77 48.0908 212.708 48.4818 213.647 48.4818C214.507 48.4818 217.635 50.2021 220.528 52.3916C223.421 54.5029 226.236 56.3014 226.705 56.3014C227.175 56.3014 227.566 56.6924 227.566 57.0834C227.566 57.5526 228.817 58.6473 230.303 59.5857C232.414 60.7586 233.352 62.0098 233.978 64.5903C234.525 66.5452 235.463 68.1873 236.245 68.4219C237.575 68.8911 243.987 77.5709 243.987 78.9784C243.987 79.3694 244.847 81.0115 245.942 82.5754C247.037 84.1394 247.897 86.3289 247.897 87.4236C247.897 88.5184 248.6 90.1605 249.461 91.0989C250.555 92.2718 251.103 94.3049 251.494 99.3095C251.807 103.376 252.51 106.738 253.292 107.911C254.465 109.788 254.856 112.134 256.264 128.32C256.655 131.996 257.359 135.593 257.906 136.296C258.688 137.157 258.844 140.91 258.531 152.248C258.062 173.205 256.811 185.326 254.856 187.124C253.761 188.141 253.37 189.548 253.37 192.363C253.37 194.475 253.058 196.429 252.589 196.664C252.198 196.899 251.807 199.245 251.807 201.747C251.807 204.249 251.259 207.299 250.634 208.55C250.008 209.723 249.304 211.678 249.07 212.851C248.835 214.024 247.975 215.588 247.193 216.37C246.411 217.152 245.473 218.559 245.238 219.497C244.691 221.218 241.797 225.284 238.044 229.585C232.414 235.997 230.381 237.717 227.487 238.499C225.845 238.968 223.499 240.219 222.405 241.236C221.232 242.331 219.902 243.191 219.433 243.191C218.964 243.191 217.635 243.817 216.618 244.52C212.787 247.257 209.346 247.883 198.086 247.883C191.908 247.883 186.903 247.726 186.903 247.57C186.903 246.319 188.858 242.565 190.735 240.141C191.986 238.577 193.237 236.153 193.55 234.746C193.863 233.338 195.271 230.992 196.756 229.585C198.633 227.786 199.415 226.301 199.415 224.58C199.415 223.251 199.962 221.609 200.666 220.905C201.37 220.201 202.386 218.481 202.856 217.152C203.403 215.744 204.732 212.851 205.905 210.583C208.329 205.813 209.893 201.434 211.066 195.648C212.787 187.124 211.77 182.98 208.095 184.153C206.374 184.7 206.296 184.856 204.889 193.145C204.029 198.384 203.403 200.105 200.901 205.031C200.119 206.595 199.415 208.394 199.415 209.019C199.415 209.645 198.868 210.583 198.242 211.13C197.616 211.678 197.069 212.616 197.069 213.242C197.069 213.789 196.365 215.275 195.427 216.526C194.567 217.699 193.628 220.201 193.394 221.922C193.159 223.72 192.534 225.206 192.064 225.206C190.813 225.206 187.685 229.428 187.685 231.071C187.685 233.416 181.977 242.644 179.475 244.286C177.285 245.693 170.091 245.928 163.836 244.677C161.724 244.286 157.736 243.817 154.999 243.738C151.246 243.504 149.838 243.113 149.056 241.94C148.118 240.61 148.353 239.985 151.402 235.919C153.279 233.495 154.843 230.758 154.843 229.819C154.843 228.881 155.312 227.082 155.938 225.753C156.563 224.346 157.189 221.452 157.423 219.185L157.736 215.197L154.921 214.806C151.715 214.415 150.933 215.197 150.933 218.637C150.933 220.045 150.386 222.156 149.76 223.329C149.135 224.58 148.587 226.222 148.587 227.004C148.587 228.881 144.599 234.198 141.08 237.013C138.813 238.812 137.405 239.281 134.59 239.281C132.557 239.281 130.524 239.672 130.055 240.141C127.709 242.487 118.873 233.104 118.873 228.255C118.873 227.082 118.56 225.91 118.169 225.675C117.856 225.44 117.309 223.72 116.996 221.922C116.683 220.123 116.058 218.168 115.588 217.621C114.259 216.057 111.209 216.37 110.662 218.168C110.036 220.123 110.975 228.177 111.913 228.803C112.304 228.959 112.93 230.68 113.477 232.4C113.946 234.198 115.354 236.935 116.605 238.421C119.107 241.471 119.42 242.409 117.778 242.409C117.23 242.409 116.292 242.956 115.745 243.582C115.197 244.208 113.946 244.755 113.008 244.755C111.991 244.755 109.411 245.693 107.143 246.866C103.39 248.821 102.842 248.899 99.6363 248.039C97.7595 247.492 95.57 247.101 94.7881 247.101C92.364 247.101 83.1368 242.018 78.9924 238.421C74.457 234.511 70.7818 229.585 71.4855 228.412C71.7983 227.943 71.4855 226.613 70.86 225.362C70.2344 224.189 69.5306 221.922 69.2178 220.358C68.905 218.715 68.2013 217.073 67.5757 216.526C66.9501 216.057 66.481 215.04 66.481 214.336C66.481 213.633 66.0118 212.147 65.3862 211.052C64.8388 209.957 63.9005 205.578 63.4313 201.356C62.0238 190.799 58.9741 185.169 55.9244 187.671C54.5951 188.766 54.3605 193.302 55.5335 195.413C55.9244 196.195 56.6282 200.105 57.1756 204.171C57.6448 208.237 58.6613 212.929 59.4433 214.649C63.1185 222.782 63.5877 224.111 63.6659 227.082C63.8223 231.305 66.3246 235.059 74.3788 243.035L80.8691 249.525L67.6539 249.212C53.2658 248.899 50.2161 248.43 48.6522 246.162C48.1048 245.38 46.9318 244.755 46.0717 244.755C45.2897 244.755 43.8822 244.051 43.1002 243.269C41.2235 241.392 37.2355 239.281 35.5934 239.281C34.9678 239.281 33.6384 238.421 32.7001 237.326C31.7617 236.231 30.5106 235.371 29.9632 235.371C29.4158 235.371 28.9467 234.902 28.9467 234.355C28.9467 233.807 27.9301 232.322 26.6008 231.071C25.3496 229.819 24.2549 228.412 24.2549 228.021C24.1767 227.552 23.1601 225.91 21.909 224.424C20.5796 222.938 19.5631 221.374 19.5631 220.827C19.5631 220.358 18.8593 219.341 18.0774 218.637C17.2172 217.855 16.2788 216.135 15.9661 214.727C15.7315 213.398 14.7931 211.052 14.0111 209.566C12.6818 206.986 11.7434 200.417 11.7434 193.614C11.7434 191.659 11.1961 189.861 10.2577 188.923C8.69378 187.124 7.99001 183.683 7.36444 174.378C7.12985 171.172 6.58248 168.201 6.1915 167.731C5.80051 167.34 5.48773 160.928 5.48773 153.5C5.48773 141.848 5.72232 139.581 6.89526 137.86C8.2246 135.827 9.08476 128.946 9.78853 116.278C9.94493 112.837 10.4923 110.492 11.2743 109.553C12.1344 108.615 12.5254 106.738 12.5254 103.767C12.5254 101.343 12.9164 99.1531 13.3074 98.9185C13.7766 98.6839 14.0893 97.3546 14.0893 96.0252C14.0893 94.6177 14.6367 93.2102 15.4187 92.6628C16.2006 92.1154 16.8262 90.8643 16.8262 89.8477C16.9826 86.9544 17.9992 84.4522 19.6413 82.81C20.4232 82.0281 21.127 80.6987 21.127 79.8386C21.127 79.0566 21.6744 77.9618 22.3 77.4145C22.9255 76.8671 23.4729 75.9287 23.4729 75.3814C23.4729 74.7558 23.8639 74.2866 24.2549 74.2866C24.7241 74.2866 25.4278 73.5047 25.897 72.4881C26.3662 71.4715 27.4609 70.3768 28.3993 69.9858C29.5722 69.4384 30.1978 68.3437 30.3542 66.7016C30.5888 64.6685 31.5271 63.4173 34.8114 60.8368C42.3183 54.8157 49.1995 50.0457 50.2161 50.0457C51.5454 50.0457 56.941 48.169 57.5666 47.4652C57.8793 47.1524 61.32 46.9179 65.2298 46.9179C71.4855 46.9179 72.5021 47.0742 73.3622 48.4818C74.066 49.5765 75.1608 50.0457 77.3503 50.0457C81.1819 50.0457 82.1984 51.2969 78.9142 52.0006C72.8931 53.33 62.9621 66.3106 59.4433 77.5709C58.9741 79.213 58.1921 80.6987 57.8012 80.9333C57.4102 81.2461 57.0974 82.9664 57.0974 84.8431C57.0974 86.7199 56.7846 88.4402 56.3936 88.6748C56.0808 88.9093 55.5335 90.7079 55.2989 92.6628C54.9861 94.6177 54.2041 97.0418 53.5003 98.1365C52.6402 99.4659 52.2492 102.046 52.171 106.816C52.0146 112.446 52.2492 113.698 53.4221 114.48C55.8462 116.044 57.4102 114.167 58.0357 108.928C58.6613 103.376 60.7726 96.5726 62.2584 95.3215C62.9621 94.6959 63.3531 92.741 63.3531 89.4567C63.3531 86.798 63.6659 84.374 64.0569 84.1394C64.3697 83.9048 64.917 82.6536 65.1516 81.4025C65.5426 79.6822 66.0118 79.213 67.1065 79.5258C69.0614 79.995 70.078 78.5092 70.6254 74.2866C71.1727 70.2204 73.3622 65.6068 76.0209 62.9481C77.0375 62.0098 78.3668 60.3676 78.9924 59.4293C80.0871 57.9436 81.1037 57.6308 88.7669 57.1616C96.5084 56.6924 97.6813 56.7706 100.496 58.2563C102.217 59.1165 103.859 60.1331 104.093 60.4458C104.875 61.5406 108.785 63.3391 110.349 63.3391C111.131 63.3391 111.991 63.6519 112.226 64.1211C112.46 64.5121 113.321 64.903 114.103 64.903C114.806 64.903 116.058 65.3722 116.839 65.9196C118.091 66.858 117.934 67.2489 114.494 70.6114C112.46 72.6445 110.036 75.7723 109.098 77.6491C108.16 79.4476 106.752 82.1845 105.97 83.6702C102.06 90.8643 101.278 98.1365 104.015 100.873C105.266 102.125 105.97 102.281 107.143 101.655C108.394 101.03 108.707 100.013 108.707 96.9636C108.707 92.8974 111.835 84.4522 113.321 84.4522C113.79 84.4522 114.181 83.9048 114.181 83.201C114.181 81.3243 116.996 77.4927 121.531 73.2701L125.519 69.5166L130.211 69.9858C132.792 70.1422 137.64 70.6114 140.924 70.846C147.649 71.3934 147.571 71.3152 151.871 79.7604C153.514 82.9664 154.061 85.2341 154.061 88.5184C154.061 90.9425 154.452 93.2102 154.843 93.4447C155.312 93.6793 155.625 95.3215 155.625 97.0418C155.625 102.359 158.284 104.94 160.942 102.281C162.115 101.108 162.193 91.0207 161.099 90.3169C160.708 90.0823 160.317 88.362 160.317 86.5635C160.317 82.1063 158.987 77.4927 156.876 74.6776C153.826 70.6896 152.575 67.6399 153.357 66.3888C153.67 65.7632 153.826 64.7467 153.67 64.1211C153.435 63.3391 154.687 62.3226 157.814 60.915C161.568 59.1165 163.836 58.7255 172.437 58.3345L182.681 57.7872L185.574 60.6804C187.138 62.3226 188.467 63.8083 188.467 64.1211C188.467 64.4339 189.328 65.6068 190.422 66.7798C191.517 67.9527 192.377 69.673 192.377 70.6896C192.377 71.7061 192.846 72.9573 193.472 73.4265C194.098 73.8956 194.723 75.3032 194.958 76.4761C195.192 77.6491 195.74 79.995 196.209 81.7153C196.678 83.4356 197.304 88.5184 197.538 93.0538C198.086 101.577 198.633 103.219 201.057 103.219C203.794 103.219 204.341 100.561 203.716 88.6748C203.247 79.3694 202.934 77.1017 201.683 75.5378C200.901 74.5212 200.197 73.1919 200.197 72.5663C200.197 70.7678 196.287 63.1045 193.941 60.4458C192.768 59.1165 191.673 57.709 191.517 57.318C191.361 57.0052 189.875 55.5195 188.233 54.1119C185.731 52.0006 184.636 51.6096 181.352 51.6096C179.162 51.6096 177.598 51.2969 177.833 50.9059C178.302 50.2021 181.117 49.5765 187.529 48.7946C189.64 48.4818 191.126 47.778 191.673 46.8397C192.299 45.5885 193.394 45.3539 199.415 45.3539C203.247 45.3539 206.609 45.6667 206.844 46.1359Z" fill="currentcolor"/>
<path d="M168.136 38.8636C168.136 39.2546 169.544 40.3494 171.264 41.4441C174.47 43.3208 174.861 44.4156 172.75 45.3539L169.935 46.7615C168.918 47.3088 167.511 47.6998 166.729 47.6998C165.869 47.6998 164.618 48.4036 163.914 49.1855C163.132 49.9675 161.02 51.0623 159.066 51.5314C157.189 52.0006 155.625 52.7826 155.625 53.1736C155.625 54.3465 152.419 56.145 149.213 56.6924C146.32 57.2398 146.241 57.1616 146.241 55.0503C146.241 53.7991 146.789 52.0788 147.414 51.2969C148.118 50.3585 148.587 48.0126 148.587 45.5885C148.587 42.6171 148.9 41.4441 149.604 41.4441C150.229 41.4441 151.324 40.7403 152.106 39.8802C153.357 38.5508 154.53 38.3163 160.864 38.3163C164.852 38.3163 168.136 38.5508 168.136 38.8636Z" fill="currentcolor"/>
<path d="M112.617 40.4276C112.695 41.2095 114.728 45.9013 117.309 50.8277C121.453 58.9601 122.157 61.697 119.42 59.6639C118.873 59.2729 116.918 58.4909 114.963 57.8654C113.008 57.318 110.584 55.9886 109.411 54.9721C108.316 53.9555 106.909 53.1736 106.205 53.1736C105.579 53.1736 103.702 52.3134 102.139 51.2187C100.575 50.1239 98.4633 49.2637 97.5249 49.2637C96.0392 49.1856 95.961 49.1074 97.134 48.4818C97.8377 48.0126 98.8543 46.4487 99.3235 44.963C99.7926 43.4772 100.887 42.0697 101.748 41.8351C102.53 41.5223 103.233 41.0531 103.233 40.6621C103.233 39.8802 105.579 39.3328 109.724 39.1764C111.991 39.0982 112.617 39.411 112.617 40.4276Z" fill="currentcolor"/>
<path d="M151.011 8.83618C152.262 11.3385 152.262 11.6513 150.308 15.7175C149.291 18.0634 147.101 21.895 145.538 24.2409C142.801 28.4635 142.722 28.6981 142.41 37.9253C142.253 44.2592 141.784 47.778 141.08 48.8728C139.751 50.7495 139.595 61.1496 140.846 63.4955C141.706 65.0594 141.628 65.1376 137.953 64.5903C134.668 64.1993 133.652 63.5737 130.758 60.3676C128.96 58.3345 127.083 55.5195 126.614 54.0337C126.067 52.548 125.05 50.6713 124.346 49.8893C123.643 49.1074 122.079 46.6051 120.906 44.3374C118.951 40.4275 118.873 39.7238 118.873 27.2905V14.3881L121.297 11.1039C123.486 8.13242 124.034 7.81963 127.083 7.81963C128.96 7.81963 130.758 7.42864 130.993 7.03766C131.306 6.56848 135.372 6.25569 140.611 6.25569H149.76L151.011 8.83618Z" fill="#279C14"/>
<path d="M74.8479 110.022C72.4238 110.335 71.5636 110.883 69.8433 113.619C68.6704 115.418 66.5591 118.702 65.1515 120.97C63.744 123.159 62.5711 125.271 62.5711 125.662C62.5711 126.053 61.7109 127.538 60.6161 129.024C59.5214 130.51 58.6612 132.465 58.6612 133.403C58.6612 134.342 58.1139 135.514 57.4883 136.062C56.8627 136.609 56.3153 137.939 56.3153 138.955C56.3153 140.05 55.6116 141.77 54.7514 142.865C52.9529 145.133 52.7965 146.853 54.1258 149.668C55.2206 152.17 58.7394 153.265 65.5425 153.265C70.7817 153.265 73.5186 151.701 73.5186 148.651C73.5186 147.869 74.0659 147.009 74.6915 146.697C75.3171 146.462 75.8645 145.524 75.8645 144.663C75.8645 143.725 76.6464 141.614 77.663 139.972C78.9923 137.548 79.8525 136.844 81.4164 136.844C83.8405 136.844 84.2315 137.313 87.2029 143.881C88.4541 146.697 90.8782 150.294 92.5203 151.858C95.1008 154.36 96.0391 154.829 99.0106 154.829C103.859 154.829 107.143 153.03 107.143 150.372C107.143 144.429 102.92 130.823 100.731 129.963C100.418 129.806 100.105 129.024 100.105 128.164C100.105 125.584 95.179 117.06 91.4255 113.15C87.8285 109.475 87.8285 109.475 82.8239 109.631C80.0871 109.71 76.49 109.866 74.8479 110.022Z" fill="black"/>
<path d="M180.882 112.603C179.944 112.994 178.771 114.089 178.224 115.105C177.754 116.122 176.503 117.764 175.565 118.859C174.626 119.953 173.141 122.534 172.359 124.645C171.577 126.756 170.404 129.024 169.7 129.728C168.918 130.432 166.729 134.107 164.696 137.86C160.708 145.524 160.16 149.199 162.662 151.701C164.852 153.891 171.264 153.812 176.112 151.545C179.084 150.137 180.178 149.042 182.212 145.133C185.73 138.329 187.998 134.498 188.467 134.498C188.936 134.498 190.813 140.284 190.813 141.848C190.813 142.396 191.361 143.334 191.986 143.881C192.612 144.429 193.159 145.602 193.159 146.54C193.159 149.903 195.192 151.545 199.962 152.014C202.464 152.248 206.14 152.639 208.251 152.952C211.066 153.265 212.474 153.109 213.959 152.092C216.54 150.45 216.227 148.573 212.317 140.675C210.831 137.626 209.58 134.498 209.58 133.638C209.58 132.856 209.189 131.996 208.72 131.683C208.251 131.448 207.234 129.728 206.374 127.929C205.592 126.209 204.028 123.316 202.934 121.595C201.839 119.875 200.666 117.686 200.275 116.825C198.633 113.072 195.74 111.821 188.936 111.899C185.496 111.899 181.821 112.212 180.882 112.603Z" fill="black"/>
<path d="M177.911 179.617C169.075 180.321 158.675 180.477 146.789 180.165C133.495 179.852 128.647 179.93 127.787 180.634C127.005 181.338 126.692 183.293 126.692 187.359C126.692 191.894 126.458 193.145 125.597 193.145C124.972 193.145 124.19 192.754 123.955 192.363C123.721 191.894 121.766 191.581 119.733 191.581C115.276 191.581 114.415 190.799 113.712 186.108C113.399 184.075 112.382 181.885 111.287 180.79C109.489 178.992 109.098 178.992 99.2452 179.226C89.6271 179.461 88.9233 179.539 87.5158 181.338C86.7338 182.354 86.03 183.605 86.03 184.153C86.03 186.264 96.0392 197.524 100.575 200.496C109.567 206.439 110.662 207.142 112.851 207.612C114.024 207.924 115.197 208.472 115.432 208.941C115.666 209.332 119.029 209.567 122.939 209.488C126.849 209.41 130.211 209.645 130.524 210.036C130.758 210.427 133.73 210.661 137.014 210.505C142.879 210.27 143.035 210.192 143.817 207.846C144.286 206.517 144.677 204.64 144.677 203.624C144.677 202.607 145.068 201.591 145.459 201.356C145.929 201.121 146.241 200.027 146.241 198.932C146.241 197.133 146.476 197.055 151.324 197.055H156.407V200.809C156.407 206.048 158.127 208.315 161.646 207.768C163.132 207.455 165.478 206.439 166.885 205.344C168.293 204.327 170.717 202.92 172.359 202.216C176.034 200.652 177.676 199.401 186.669 190.878C192.221 185.638 193.941 183.449 193.941 181.963C193.941 180.79 193.316 179.617 192.612 179.226C191.83 178.835 185.418 179.07 177.911 179.617Z" fill="black"/>
</svg>
