<svg width="258" height="125" viewBox="0 0 258 304" fill="none" xmlns="http://www.w3.org/2000/svg">
<path d="M207.317 0.69281C204.384 1.22614 191.184 1.35947 177.851 0.959473C160.651 0.559473 153.451 0.959487 152.784 2.02615C151.584 4.02615 64.5 3 61 2.5C58.7705 2.1815 57.9333 2 57 2C54.7333 2 42.6505 11.4928 42.6505 13.3595C42.6505 14.1595 33.5838 23.7595 22.5172 34.8261C11.4505 45.7595 1.8505 55.7595 1.18383 57.0928C-0.416167 60.0262 -0.416167 65.7595 1.31717 66.8261C2.2505 67.3595 2.6505 98.6928 2.6505 156.559C2.6505 205.493 3.0505 258.559 3.58383 274.559C4.38383 301.493 4.51717 303.493 6.91717 303.493C8.78383 303.493 9.31717 302.426 9.31717 298.826C9.31717 295.493 9.98383 294.159 11.3172 294.159C13.4505 294.159 20 282.5 23.1838 277.093C24.242 275.296 25.1207 274.455 25.5 274C26.0495 273.341 26 272 26.6505 269.759C28 266 28.1172 262.693 30.6505 267.759C38.6505 283.493 47.0505 294.159 51.4505 294.159C53.9838 294.159 57.1838 290.559 57.3172 287.626C57.3172 284.959 63.5 275.5 64.2505 274.159C64.5 273.5 64.5461 273.408 65 272.5C65.5 271.5 66.2505 269.893 67.4505 268.693C69.5838 266.293 69.7172 266.293 71.9838 269.226C73.1605 270.795 72.0295 269.287 75.3005 275.011C75.4311 275.24 75.5879 275.469 75.7531 275.673C79.4114 280.212 75.5881 275.469 79.5838 280.426C85.7172 286.559 79.5838 280.426 85.7172 286.559C92.7838 294.693 85.7172 286.559 92.7838 294.693C96.5172 297.626 97.8505 298.026 99.3172 296.826C100.384 295.893 100.634 293.719 101.317 291.359C102 289 102.301 287.652 102.65 286.826C103 286 103.603 284.826 103.984 283.626C104.5 282 104.784 280.426 105.717 279.626C106.784 278.826 108.917 275.493 110.65 272.159C114.117 265.493 115.317 264.826 116.65 268.959C117.184 270.426 120.917 275.226 125.05 279.359C129.317 283.626 134.651 289.226 137.051 292.026C141.584 297.226 146.117 298.159 147.984 294.159C148.517 293.093 149.584 290.826 150.384 289.226C151.317 287.626 152 284 152.784 280.826C154 278 153.5 279 154.784 275.493C155.429 273.73 155.984 273.093 155.984 270.293C155.984 263.626 157.5 262.5 160.251 267.493C162 269.5 162.5 270 163.584 271.493C166.5 274.5 166.917 274.693 169.184 278.426C171.317 282.293 175.584 288.426 178.651 292.026C181.584 295.493 181 294.5 181.5 295C182 295.5 184.767 298.267 186.5 298C188.767 297.733 190.117 299.093 190.384 295.493C190.651 292.959 191.451 290.293 192.117 289.626C192.784 288.826 193.317 286.426 193.317 284.026C193.317 281.759 194.117 279.093 195.184 278.293C197.317 276.559 197.851 277.093 199.184 282.693C200.384 287.759 203.851 292.826 206.117 292.826C207.451 292.826 207.851 290.826 207.851 285.359C207.717 281.226 208.251 277.493 209.051 276.959C209.851 276.559 210.784 273.759 211.317 270.826C211.851 267.893 212.651 264.826 213.184 264.159C213.584 263.359 214.651 259.893 215.317 256.293L216.651 249.626L221.584 254.693C227 259.893 228.5 259.893 231.717 254.159C231.984 251.626 232.784 248.826 233.451 248.026C234.117 247.093 235.051 242.559 235.584 237.626C236.255 230.584 237.499 228.584 238.767 229.594C239.369 230.073 239.861 230.693 240.406 231.236C240.843 231.671 241.237 232.154 242.117 232.826C243 233.5 244 234 245.317 235.493C248 238 251.717 238.959 255.317 236.293C258.784 233.759 256.384 220.607 256.384 216C256.384 207 255.717 209.093 256.384 173.893C256.917 151.626 257.317 103.493 257.451 66.8261V0.159485L235.051 0.0261536C222.784 -0.10718 210.251 0.29281 207.317 0.69281ZM233.984 6.69281C232.517 7.62614 229.317 8.9595 227.051 9.49283C225.679 9.7214 224.438 10.1241 223.627 10.5269C222.848 10.913 222.373 11.7254 221.668 12.2342C219.124 14.0729 212.533 17.612 210.251 18.1595C209.5 18.5 209 19 207.717 19.7595C207.707 19.7639 207.697 19.7684 207.686 19.7728C205.973 20.5119 203.692 21.4952 199.584 21.8928C195.317 22.1595 191.584 22.9595 191.184 23.6262C190.784 24.2928 189.451 24.8261 188.251 24.8261C187.051 24.8261 184.917 26.2928 183.317 28.1595C180.917 31.2262 179.317 31.6261 164.651 32.8261C139.851 34.8261 121.584 34.5595 119.184 32.1595C117.584 30.5595 113.717 30.1595 101.85 30.1595C92.1172 30.1595 86.6505 29.6261 86.6505 28.8261C86.6505 26.9595 75.7172 15.4928 73.9838 15.4928C72.3838 15.3595 66.6505 10.8262 66.6505 9.62616C66.6505 9.22616 86.3838 8.82614 110.517 8.82614C142.251 8.82614 154.784 8.42614 155.451 7.22614C156.117 6.15947 163.184 6.02615 181.184 6.55948C194.784 6.95948 208.117 6.82615 210.651 6.29282C213.184 5.62615 220.117 5.09281 225.984 4.95947C235.317 4.82614 236.251 5.09281 233.984 6.69281ZM59.1838 13.2261C60.6505 14.8261 64.2505 17.6261 67.0505 19.3595C69.7172 20.9595 71.5 23 71.9838 23.6262C72.5 24 73 24.5 73.8505 24.8261C76 26 78.7838 27.8928 77.5838 29.6262C77.0505 30.4262 74.5172 31.7595 71.9838 32.6928C69.4505 33.6261 65.4505 35.3595 63.0505 36.2928C60.7838 37.3595 57.7172 38.1595 56.2505 38.1595C54.7838 38.1595 52.3838 39.7595 51.0505 41.6262C47.5 44 47 44 41.5838 45.8928C37.7172 46.1595 38 46.5 34.6505 47.6261C34 48 34.5 47.5 32.9172 48.8261C31.5 50 30 50 27.9838 51.4928C26.2505 52.9595 24.6505 53.5 21.9838 54.1595C20.5 54.5 18.6505 54.6928 17.8505 55.3595C17.1838 55.8928 14.6505 57.0928 12.1172 58.0261C7.98383 59.3595 7.8505 59.2262 9.4505 57.0928C10.3838 55.8928 19.4505 46.5595 29.5838 36.4261C39.7172 26.4261 47.9838 17.7595 47.9838 17.2261C47.9838 16.2928 54.7838 10.2928 55.8505 10.1595C56.1172 10.1595 57.5838 11.4928 59.1838 13.2261ZM238.784 14.8261C236.517 17.4928 232.784 21.4928 230.384 24.0262C225.184 29.2262 219.984 36.1595 219.984 37.8928C219.984 38.5595 218.784 40.1595 217.451 41.3595C215.984 42.6928 214.517 45.0928 214.117 46.8261C212.917 51.3595 209.051 49.7595 203.984 42.6928C201.717 39.4928 198.651 36.1595 197.184 35.3595C195.451 34.5595 194.651 32.9595 194.917 31.0928C195.184 28.6928 196.384 28.0261 201.984 27.3595C207.984 26.6928 214.384 24.2928 219.984 20.6928C221.051 20.0261 223.051 19.0928 224.384 18.6928C225.272 18.2979 225.923 18.0023 226.465 17.5477C226.854 17.2209 227.218 16.8588 227.636 16.5687C227.897 16.3867 228.076 16.2552 228.215 16.1474C228.745 15.7349 229.336 15.4166 229.979 15.2222C231.581 14.7381 233.378 14.0396 235.584 12.8261C242.784 8.95948 243.451 9.49281 238.784 14.8261ZM250.917 117.493C250.397 201.048 251.448 216.771 252.893 224.45C252.963 224.819 253.082 225.173 253.222 225.521C254.401 228.467 253.379 229.298 252.117 230.559C250.784 231.759 249.584 231.226 246.651 227.626C243.317 223.759 241.851 223.093 237.051 222.959V222.959C233.829 222.885 231.106 225.33 230.834 228.541L230.517 232.293C229.584 241.759 229.933 253 227 253C224.867 253 218.651 242.159 218.651 239.226C218.651 237.493 217.584 236.826 214.784 236.826V236.826C212.679 236.826 210.93 238.45 210.775 240.549L210.251 247.626C209.851 253.626 208.8 267.2 208 268C206.933 269.067 206.651 234.426 206.651 164.959V68.5595L212.517 61.0928C215.717 56.9595 218.651 52.2928 219.184 50.6928C219.584 49.2261 221.051 46.8261 222.384 45.3595C225.184 42.0261 227.584 38.2928 229.184 34.8261C230.251 32.2928 249.584 12.8261 251.051 12.8261C251.317 12.8261 251.317 59.8928 250.917 117.493ZM83.7265 35.1011C84.9855 34.9402 86.527 35.3891 87.7905 35.5104C90.1971 35.7415 94.5346 35.8085 99.1838 35.6262C109.05 35.3595 111.984 35.7595 113.717 37.3595C115.45 39.0928 119.184 39.4928 133.584 39.4928C154.303 39.3738 178.107 37.6595 184.67 35.9646C185.746 35.6866 187.014 34.9069 187.909 35.5663C187.949 35.5957 187.99 35.6285 188.034 35.6649C188.666 36.1952 188.983 36.9985 189.351 37.7369C189.864 38.7637 190.627 39.4928 191.317 39.4928C192.251 39.4928 194.917 42.0261 197.451 44.9595C199.984 48.0261 203.451 52.0261 205.184 53.6261L208.384 56.8261H192.251C183.451 56.8261 175.851 57.3595 175.451 58.0261C175.051 58.6928 168.917 59.6262 161.984 60.1595C155.051 60.6928 149.317 61.4928 149.317 62.0261C149.317 62.6928 144.384 63.4928 138.384 64.0261C132.384 64.5595 126.65 65.6261 125.584 66.4261C123.05 68.6928 84.3838 69.7595 82.2505 67.6261C81.3172 66.6928 73.3172 66.1595 58.6505 66.1595C46.5172 66.1595 35.9838 65.6261 35.1838 64.9595C34.5172 64.1595 29.8505 63.4928 24.6505 63.2262L15.3172 62.8261L23.7172 60.2928C28.2505 58.8261 31.5 57 31.9838 56.6928C33 56 33.8505 55.3595 35.9838 54.8261C38.2505 54.2928 37.7104 54 39.9838 52.8261C41.5838 52 42.9172 51.4928 46.5172 50.9595C51.3172 50.2928 53.5838 49.2261 55.1838 46.9595C56.5172 44.8261 59.0505 43.4928 62.6505 42.8261C64.3809 42.5115 65.7573 42.1066 66.8314 41.7165C68.022 41.284 69.1222 40.416 70.278 39.8977C71.5377 39.3327 73.3825 38.7012 75.3172 38.1595C77.3771 37.5827 79.3352 36.8531 80.6251 36.254C81.6413 35.782 82.615 35.2433 83.7265 35.1011V35.1011ZM201.317 164.826C201.317 260.693 200.651 279.759 197.851 261.493C197.184 256.293 196.517 255.493 193.851 255.493C190.784 255.493 190.651 255.893 190.651 264.693C190.651 269.893 190 272 189.317 274.826C188.901 276.547 188.545 277.838 188.074 280.226C188.013 280.536 187.986 280.85 187.975 281.166C187.873 284.136 186.884 289.742 186 290.5C183.733 292.233 181.051 286.159 173.984 275.093C171.317 270.693 168.251 266.293 167.317 265.093C159.984 256.026 158.251 254.159 157.317 254.159C155.184 254.159 152 263 150.651 267.359C150 270 150.5 267.5 149.451 271.493C148 275 148 274.5 147.451 278.026C145.984 289.093 143.851 289.226 133.851 279.359C129.184 274.693 126 270 125.317 269.226C124.634 268.452 125 269 123.984 267.493C123.12 266.212 123.5 267 122.651 265.759C121 263.5 115.184 256.559 112.517 257.093C111.05 257.359 109.051 260.293 107.451 264.293C105.851 267.893 103.317 272.693 101.717 274.693C99.9838 276.826 98.6505 279.226 98.6505 280.159C98.6505 281.093 97.8505 283.359 96.9172 285.359V285.359C96.0461 286.915 93.8555 287.043 92.8098 285.598L92.2505 284.826C90.6505 282.693 89.1828 281.2 88.5 280C87.954 279.041 87 277 85.3172 275.359C83 273.5 81 272 79.8505 269.759C77.5838 264.293 71.3172 258.159 68.1172 258.159C66.2505 258.159 64.7838 259.359 63.9838 261.493C63.3172 263.226 61.7172 265.893 60.3838 267.226C57.4505 270.293 53.3172 277.759 53.3172 279.893C53.3172 280.826 52.7838 282.293 52.1172 283.359C51.0505 284.959 50.1172 284.559 46.6505 281.359C44.3838 279.226 41.5838 275.359 40.3838 272.826C36.2505 264.026 29.9838 255.493 27.7172 255.493C24.6505 255.493 23 261 21.3172 265.093C20.5 267.5 20.5 267.5 20.1172 268.826C19.5 270 19 271 18.1172 273.226C17.2343 275.452 15.4505 279.626 13.3172 282.159L9.31717 286.826L9.58383 274.559C9.71717 267.759 9.4505 261.893 8.91717 261.359C8.38383 260.826 7.98383 217.226 7.98383 164.559V68.8261H19.1838C25.4505 68.8261 30.9172 69.3595 31.3172 70.1595C31.8505 70.9595 41.1838 71.4928 55.1838 71.4928C70.3838 71.4928 78.6505 72.0261 79.5838 72.9595C81.7172 75.0928 127.05 74.0261 129.584 71.7595C130.65 70.9595 135.984 69.7595 141.451 69.3595C146.917 68.8261 151.984 68.0261 152.651 67.4928C153.451 66.8261 159.584 66.0261 166.384 65.4928C173.184 64.9595 179.051 63.8928 179.451 63.3595C179.851 62.6928 184.917 62.1595 190.784 62.1595H201.317V164.826Z" fill="black"/>
<path d="M59.1838 13.2261C60.6505 14.8261 64.2505 17.6261 67.0505 19.3595C69.7172 20.9595 71.5 23 71.9838 23.6262C72.5 24 73 24.5 73.8505 24.8261C76 26 78.7838 27.8928 77.5838 29.6262C77.0505 30.4262 74.5172 31.7595 71.9838 32.6928C69.4505 33.6261 65.4505 35.3595 63.0505 36.2928C60.7838 37.3595 57.7172 38.1595 56.2505 38.1595C54.7838 38.1595 52.3838 39.7595 51.0505 41.6262C47.5 44 47 44 41.5838 45.8928C37.7172 46.1595 38 46.5 34.6505 47.6261C34 48 34.5 47.5 32.9172 48.8261C31.5 50 30 50 27.9838 51.4928C26.2505 52.9595 24.6505 53.5 21.9838 54.1595C20.5 54.5 18.6505 54.6928 17.8505 55.3595C17.1838 55.8928 14.6505 57.0928 12.1172 58.0261C7.98383 59.3595 7.8505 59.2262 9.4505 57.0928C10.3838 55.8928 19.4505 46.5595 29.5838 36.4261C39.7172 26.4261 47.9838 17.7595 47.9838 17.2261C47.9838 16.2928 54.7838 10.2928 55.8505 10.1595C56.1172 10.1595 57.5838 11.4928 59.1838 13.2261Z" fill="currentcolor"/>
<path d="M233.984 6.69281C232.517 7.62614 229.317 8.9595 227.051 9.49283C225.679 9.7214 224.438 10.1241 223.627 10.5269C222.848 10.913 222.373 11.7254 221.668 12.2342C219.124 14.0729 212.533 17.612 210.251 18.1595C209.5 18.5 209 19 207.717 19.7595L207.686 19.7728C205.973 20.5119 203.692 21.4952 199.584 21.8928C195.317 22.1595 191.584 22.9595 191.184 23.6262C190.784 24.2928 189.451 24.8261 188.251 24.8261C187.051 24.8261 184.917 26.2928 183.317 28.1595C180.917 31.2262 179.317 31.6261 164.651 32.8261C139.851 34.8261 121.584 34.5595 119.184 32.1595C117.584 30.5595 113.717 30.1595 101.85 30.1595C92.1172 30.1595 86.6505 29.6261 86.6505 28.8261C86.6505 26.9595 75.7172 15.4928 73.9838 15.4928C72.3838 15.3595 66.6505 10.8262 66.6505 9.62616C66.6505 9.22616 86.3838 8.82614 110.517 8.82614C142.251 8.82614 154.784 8.42614 155.451 7.22614C156.117 6.15947 163.184 6.02615 181.184 6.55948C194.784 6.95948 208.117 6.82615 210.651 6.29282C213.184 5.62615 220.117 5.09281 225.984 4.95947C235.317 4.82614 236.251 5.09281 233.984 6.69281Z" fill="currentcolor"/>
<path d="M83.7265 35.1011C84.9855 34.9402 86.527 35.3891 87.7905 35.5104C90.1971 35.7415 94.5346 35.8085 99.1838 35.6262C109.05 35.3595 111.984 35.7595 113.717 37.3595C115.45 39.0928 119.184 39.4928 133.584 39.4928C154.303 39.3738 178.107 37.6595 184.67 35.9646C185.746 35.6866 187.014 34.9069 187.909 35.5663C187.949 35.5957 187.99 35.6285 188.034 35.6649C188.666 36.1952 188.983 36.9985 189.351 37.7369C189.864 38.7637 190.627 39.4928 191.317 39.4928C192.251 39.4928 194.917 42.0261 197.451 44.9595C199.984 48.0261 203.451 52.0261 205.184 53.6261L208.384 56.8261H192.251C183.451 56.8261 175.851 57.3595 175.451 58.0261C175.051 58.6928 168.917 59.6262 161.984 60.1595C155.051 60.6928 149.317 61.4928 149.317 62.0261C149.317 62.6928 144.384 63.4928 138.384 64.0261C132.384 64.5595 126.65 65.6261 125.584 66.4261C123.05 68.6928 84.3838 69.7595 82.2505 67.6261C81.3172 66.6928 73.3172 66.1595 58.6505 66.1595C46.5172 66.1595 35.9838 65.6261 35.1838 64.9595C34.5172 64.1595 29.8505 63.4928 24.6505 63.2262L15.3172 62.8261L23.7172 60.2928C28.2505 58.8261 31.5 57 31.9838 56.6928C33 56 33.8505 55.3595 35.9838 54.8261C38.2505 54.2928 37.7104 54 39.9838 52.8261C41.5838 52 42.9172 51.4928 46.5172 50.9595C51.3172 50.2928 53.5838 49.2261 55.1838 46.9595C56.5172 44.8261 59.0505 43.4928 62.6505 42.8261C64.3809 42.5115 65.7573 42.1066 66.8314 41.7165C68.022 41.284 69.1222 40.416 70.278 39.8977C71.5377 39.3327 73.3825 38.7012 75.3172 38.1595C77.3771 37.5827 79.3352 36.8531 80.6251 36.254C81.6413 35.782 82.615 35.2433 83.7265 35.1011V35.1011Z" fill="currentcolor"/>
<path d="M238.784 14.8261C236.517 17.4928 232.784 21.4928 230.384 24.0262C225.184 29.2262 219.984 36.1595 219.984 37.8928C219.984 38.5595 218.784 40.1595 217.451 41.3595C215.984 42.6928 214.517 45.0928 214.117 46.8261C212.917 51.3595 209.051 49.7595 203.984 42.6928C201.717 39.4928 198.651 36.1595 197.184 35.3595C195.451 34.5595 194.651 32.9595 194.917 31.0928C195.184 28.6928 196.384 28.0261 201.984 27.3595C207.984 26.6928 214.384 24.2928 219.984 20.6928C221.051 20.0261 223.051 19.0928 224.384 18.6928C225.272 18.2979 225.923 18.0023 226.465 17.5477C226.854 17.2209 227.218 16.8588 227.636 16.5687C227.897 16.3867 228.076 16.2552 228.215 16.1474C228.745 15.7349 229.336 15.4166 229.979 15.2222C231.581 14.7381 233.378 14.0396 235.584 12.8261C242.784 8.95948 243.451 9.49281 238.784 14.8261Z" fill="currentcolor"/>
<path d="M201.317 164.826C201.317 260.693 200.651 279.759 197.851 261.493C197.184 256.293 196.517 255.493 193.851 255.493C190.784 255.493 190.651 255.893 190.651 264.693C190.651 269.893 190 272 189.317 274.826C188.901 276.547 188.545 277.838 188.074 280.226C188.013 280.536 187.986 280.85 187.975 281.166C187.873 284.136 186.884 289.742 186 290.5C183.733 292.233 181.051 286.159 173.984 275.093C171.317 270.693 168.251 266.293 167.317 265.093C159.984 256.026 158.251 254.159 157.317 254.159C155.184 254.159 152 263 150.651 267.359C150 270 150.5 267.5 149.451 271.493C148 275 148 274.5 147.451 278.026C145.984 289.093 143.851 289.226 133.851 279.359C129.184 274.693 126 270 125.317 269.226C124.634 268.452 125 269 123.984 267.493C123.12 266.212 123.5 267 122.651 265.759C121 263.5 115.184 256.559 112.517 257.093C111.05 257.359 109.051 260.293 107.451 264.293C105.851 267.893 103.317 272.693 101.717 274.693C99.9838 276.826 98.6505 279.226 98.6505 280.159C98.6505 281.093 97.8505 283.359 96.9172 285.359V285.359C96.0461 286.915 93.8555 287.043 92.8098 285.598L92.2505 284.826C90.6505 282.693 89.1828 281.2 88.5 280C87.954 279.041 87 277 85.3172 275.359C83 273.5 81 272 79.8505 269.759C77.5838 264.293 71.3172 258.159 68.1172 258.159C66.2505 258.159 64.7838 259.359 63.9838 261.493C63.3172 263.226 61.7172 265.893 60.3838 267.226C57.4505 270.293 53.3172 277.759 53.3172 279.893C53.3172 280.826 52.7838 282.293 52.1172 283.359C51.0505 284.959 50.1172 284.559 46.6505 281.359C44.3838 279.226 41.5838 275.359 40.3838 272.826C36.2505 264.026 29.9838 255.493 27.7172 255.493C24.6505 255.493 23 261 21.3172 265.093C20.5 267.5 20.5 267.5 20.1172 268.826C19.5 270 19 271 18.1172 273.226C17.2343 275.452 15.4505 279.626 13.3172 282.159L9.31717 286.826L9.58383 274.559C9.71717 267.759 9.4505 261.893 8.91717 261.359C8.38383 260.826 7.98383 217.226 7.98383 164.559V68.8261H19.1838C25.4505 68.8261 30.9172 69.3595 31.3172 70.1595C31.8505 70.9595 41.1838 71.4928 55.1838 71.4928C70.3838 71.4928 78.6505 72.0261 79.5838 72.9595C81.7172 75.0928 127.05 74.0261 129.584 71.7595C130.65 70.9595 135.984 69.7595 141.451 69.3595C146.917 68.8261 151.984 68.0261 152.651 67.4928C153.451 66.8261 159.584 66.0261 166.384 65.4928C173.184 64.9595 179.051 63.8928 179.451 63.3595C179.851 62.6928 184.917 62.1595 190.784 62.1595H201.317V164.826Z" fill="currentcolor"/>
<path d="M250.917 117.493C250.397 201.048 251.448 216.771 252.893 224.45C252.963 224.819 253.082 225.173 253.222 225.521C254.401 228.467 253.379 229.298 252.117 230.559C250.784 231.759 249.584 231.226 246.651 227.626C243.317 223.759 241.851 223.093 237.051 222.959V222.959C233.829 222.885 231.106 225.33 230.834 228.541L230.517 232.293C229.584 241.759 229.933 253 227 253C224.867 253 218.651 242.159 218.651 239.226C218.651 237.493 217.584 236.826 214.784 236.826V236.826C212.679 236.826 210.93 238.45 210.775 240.549L210.251 247.626C209.851 253.626 208.8 267.2 208 268C206.933 269.067 206.651 234.426 206.651 164.959V68.5595L212.517 61.0928C215.717 56.9595 218.651 52.2928 219.184 50.6928C219.584 49.2261 221.051 46.8261 222.384 45.3595C225.184 42.0261 227.584 38.2928 229.184 34.8261C230.251 32.2928 249.584 12.8261 251.051 12.8261C251.317 12.8261 251.317 59.8928 250.917 117.493Z" fill="currentcolor"/>
<path d="M133.667 120.196C128.697 121.698 123.578 126.084 122.084 129.502C121.684 130.419 121.139 131.337 120.691 132.231V132.231C120.498 132.616 120.246 132.932 120.135 133.347C119.712 134.922 119 138.983 119 145.396C119 150.35 119.212 154.088 119.568 156.177C119.789 157.474 120.555 158.626 121.545 159.494V159.494C122.09 159.972 122.72 160.697 123.1 161.315C125.587 165.36 134.173 171.915 137.349 173.903C138.399 174.744 138.849 174.903 140.333 175.396C143.849 176.564 159.8 176.996 163.4 174.996C165 174.196 167.4 172.196 168.6 170.729C176.867 161.396 176.6 162.063 176.067 151.396C175.8 144.996 175 140.463 173.667 138.996C169.267 133.663 167.349 130.403 164.349 128.403C163.967 127.829 163.218 127.329 162.384 126.845C159.911 125.413 157.37 123.924 155.349 121.903V121.903C153.349 120.403 153.167 120.529 150.349 118.903C147.532 117.277 141 117.929 133.667 120.196Z" fill="black"/>
<path d="M67.3173 120.426C65.8506 120.693 63.3173 121.226 61.7173 121.493C57.9839 122.293 46.9173 131.893 42.7839 138.026C40.2506 141.626 39.3173 144.959 38.9173 152.959C38.3839 162.293 38.5173 163.359 41.4506 166.026C46.9173 171.093 52.2506 172.959 63.4506 173.759C72.2506 174.426 74.9173 174.159 77.4506 172.293C79.1839 171.093 81.5839 170.159 82.6506 170.159C85.7173 170.159 91.9839 163.226 91.9839 160.026C91.9839 158.559 92.9173 156.159 93.9839 154.693C97.4506 150.026 96.3839 142.959 90.3839 132.159C83.7173 120.293 79.0506 117.893 67.3173 120.426Z" fill="black"/>
</svg>
